<svg width="512" height="512" viewBox="0 0 512 512" fill="none" xmlns="http://www.w3.org/2000/svg">
<g clip-path="url(#clip0_6557_1226)">
<path d="M256 512C397.385 512 512 397.385 512 256C512 114.615 397.385 0 256 0C114.615 0 0 114.615 0 256C0 397.385 114.615 512 256 512Z" fill="white"/>
<path d="M256 0C154.506 0 66.81 59.065 25.402 144.696H486.597C445.19 59.065 357.493 0 256 0Z" fill="#3E94FD"/>
<path d="M256 512.001C357.493 512.001 445.19 452.936 486.598 367.305H25.402C66.81 452.936 154.506 512.001 256 512.001Z" fill="#3E94FD"/>
<path d="M332.515 256.002L301.25 270.709L317.899 300.988L283.949 294.493L279.647 328.789L256 303.565L232.352 328.789L228.051 294.493L194.101 300.987L210.749 270.708L179.485 256.002L210.75 241.295L194.101 211.017L228.05 217.511L232.353 183.215L256 208.439L279.648 183.215L283.949 217.511L317.9 211.017L301.251 241.296L332.515 256.002Z" fill="#FFDA44"/>
</g>
<defs>
<clipPath id="clip0_6557_1226">
<rect width="512" height="512" fill="white"/>
</clipPath>
</defs>
</svg>
