<svg width="512" height="512" viewBox="0 0 512 512" fill="none" xmlns="http://www.w3.org/2000/svg">
<g clip-path="url(#clip0_6557_1232)">
<path d="M512 256C512 397.384 397.384 512 256 512C114.616 512 0 397.384 0 256C0 256.06 256 0.029 256 0C397.384 0 512 114.616 512 256Z" fill="#0052B4"/>
<path d="M255.315 256.001H256C256 255.769 256 255.547 256 255.316C255.772 255.545 255.544 255.773 255.315 256.001Z" fill="white"/>
<path d="M256 133.565C256 88.52 256 59.003 256 0H255.957C114.592 0.023 0 114.628 0 255.999H133.565V180.787L208.777 255.999H255.316C255.545 255.771 255.773 255.543 256.001 255.314C256.001 238.067 256.001 222.678 256.001 208.778L180.788 133.565H256Z" fill="white"/>
<path d="M129.515 33.3906C89.476 56.1896 56.19 89.4756 33.391 129.515V256H100.174V100.175V100.174H256C256 79.1106 256 59.0446 256 33.3906H129.515Z" fill="#DD203C"/>
<path d="M256 224.519L165.047 133.567H133.566C133.566 133.566 133.566 133.567 133.566 133.567L255.999 256H256C256 256 256 234.295 256 224.519Z" fill="#DD203C"/>
<path d="M154.395 300.523L168.445 329.901L200.172 322.568L185.964 351.87L211.478 372.103L179.711 379.263L179.8 411.827L154.395 391.454L128.991 411.827L129.08 379.263L97.312 372.103L122.827 351.87L108.617 322.568L140.346 329.901L154.395 300.523Z" fill="white"/>
<path d="M383.284 356.176L390.309 370.865L406.173 367.198L399.068 381.849L411.826 391.966L395.942 395.546L395.986 411.828L383.284 401.641L370.582 411.828L370.626 395.546L354.743 391.966L367.5 381.849L360.396 367.198L376.259 370.865L383.284 356.176Z" fill="white"/>
<path d="M317.933 200.348L324.957 215.038L340.821 211.37L333.717 226.021L346.474 236.138L330.591 239.718L330.634 256L317.933 245.813L305.231 256L305.274 239.718L289.391 236.138L302.148 226.021L295.044 211.37L310.908 215.038L317.933 200.348Z" fill="white"/>
<path d="M383.284 111.305L390.309 125.995L406.173 122.328L399.069 136.979L411.825 147.095L395.942 150.676L395.986 166.958L383.284 156.771L370.582 166.958L370.626 150.676L354.743 147.095L367.499 136.979L360.396 122.328L376.259 125.995L383.284 111.305Z" fill="white"/>
<path d="M440.368 178.086L447.392 192.776L463.256 189.108L456.152 203.759L468.909 213.876L453.025 217.457L453.069 233.738L440.368 223.552L427.666 233.738L427.709 217.457L411.826 213.876L424.583 203.759L417.479 189.108L433.342 192.776L440.368 178.086Z" fill="white"/>
<path d="M399.55 256L405.075 273.006H422.957L408.49 283.517L414.017 300.522L399.55 290.012L385.084 300.522L390.609 283.517L376.143 273.006H394.024L399.55 256Z" fill="white"/>
</g>
<defs>
<clipPath id="clip0_6557_1232">
<rect width="512" height="512" fill="white"/>
</clipPath>
</defs>
</svg>
