<svg width="512" height="512" viewBox="0 0 512 512" fill="none" xmlns="http://www.w3.org/2000/svg">
<g clip-path="url(#clip0_6557_1253)">
<path d="M345.043 15.923C317.31 5.633 287.314 0 256 0C224.686 0 194.69 5.633 166.957 15.923L144.696 256L166.957 496.077C194.69 506.368 224.686 512 256 512C287.314 512 317.31 506.368 345.043 496.077L367.304 256L345.043 15.923Z" fill="#FFDA44"/>
<path d="M512 256.002C512 145.932 442.528 52.0958 345.043 15.9258V496.081C442.528 459.908 512 366.074 512 256.002Z" fill="#DD203C"/>
<path d="M0 256.002C0 366.074 69.472 459.908 166.957 496.08V15.9258C69.472 52.0958 0 145.932 0 256.002Z" fill="black"/>
</g>
<defs>
<clipPath id="clip0_6557_1253">
<rect width="512" height="512" fill="white"/>
</clipPath>
</defs>
</svg>
