<svg width="512" height="512" viewBox="0 0 512 512" fill="none" xmlns="http://www.w3.org/2000/svg">
<g clip-path="url(#clip0_6557_1257)">
<path d="M256 512C397.385 512 512 397.385 512 256C512 114.615 397.385 0 256 0C114.615 0 0 114.615 0 256C0 397.385 114.615 512 256 512Z" fill="white"/>
<path d="M256 0C165.23 0 85.5 47.243 40.044 118.479L387.203 475.849C461.946 431.147 512 349.423 512 256C512 114.616 397.384 0 256 0Z" fill="#FFDA44"/>
<path d="M512 255.998C512 189.576 486.702 129.068 445.217 83.5703V428.427C486.702 382.928 512 322.42 512 255.998Z" fill="#021F71"/>
<path d="M319.789 481.871L346.604 481.854L354.876 456.345L363.178 481.844L376.628 481.836C384.875 477.421 392.852 472.569 400.528 467.307L44.689 111.469C38.825 120.025 33.477 128.959 28.668 138.219L31.83 147.931L58.645 147.914L36.961 163.689L45.263 189.188L23.559 173.44L10.614 182.856C3.713 206.032 0 230.581 0 255.998C0 397.382 114.616 511.998 256 511.998C285.892 511.998 314.583 506.866 341.25 497.446L319.789 481.871ZM57.099 244.868L65.369 219.36L43.667 203.61L70.482 203.593L78.753 178.084L87.055 203.583L113.87 203.566L92.185 219.341L100.487 244.84L78.783 229.092L57.099 244.868ZM112.324 300.52L120.594 275.012L98.892 259.262L125.707 259.245L133.978 233.736L142.28 259.235L169.095 259.218L147.411 274.993L155.713 300.492L134.009 284.744L112.324 300.52ZM167.548 356.172L175.818 330.664L154.116 314.914L180.931 314.897L189.202 289.388L197.504 314.887L224.319 314.87L202.635 330.645L210.937 356.144L189.233 340.394L167.548 356.172ZM244.457 396.049L222.772 411.824L231.042 386.316L209.34 370.566L236.155 370.549L244.427 345.04L252.729 370.539L279.544 370.522L257.86 386.297L266.162 411.796L244.457 396.049ZM277.997 467.476L286.267 441.968L264.565 426.218L291.38 426.201L299.651 400.692L307.953 426.191L334.768 426.174L313.084 441.949L321.386 467.448L299.682 451.698L277.997 467.476Z" fill="#021F71"/>
</g>
<defs>
<clipPath id="clip0_6557_1257">
<rect width="512" height="512" fill="white"/>
</clipPath>
</defs>
</svg>
