<svg width="697" height="1110" viewBox="0 0 697 1110" fill="none" xmlns="http://www.w3.org/2000/svg">
<path d="M3.54688 664.227L3.54688 618.005L332.436 590.005L332.436 628.227L248.88 632.671L248.88 651.338L332.436 655.782L332.436 692.227L3.54688 664.227ZM151.991 646.449L215.991 649.56L215.991 634.449L151.991 638.005L83.1024 642.005L83.1024 642.894L151.991 646.449Z" fill="white"/>
<path d="M182.658 691.314L182.658 722.87L332.436 722.87L332.436 761.98L3.54688 761.98L3.54688 686.87L36.4358 686.87L36.4358 722.87L149.769 722.87L149.769 691.314L182.658 691.314Z" fill="white"/>
<path d="M332.436 815.363L3.54688 815.363L3.54688 776.252L332.436 776.252L332.436 815.363Z" fill="white"/>
<path d="M182.658 830.197L182.658 861.752L332.436 861.752L332.436 900.863L3.54688 900.863L3.54688 825.753L36.4358 825.753L36.4358 861.752L149.769 861.752L149.769 830.197L182.658 830.197Z" fill="white"/>
<path d="M56.8802 0.00108682L279.102 0.00108947C314.214 0.00108989 332.436 16.4454 332.436 44.0008L332.436 94.2227L3.54688 94.2227L3.54688 44.0008C3.54688 16.4454 21.7691 0.0010864 56.8802 0.00108682ZM300.436 55.1118L300.436 48.0007C300.436 41.3341 294.214 39.1119 282.214 39.1119L53.7691 39.1119C41.7691 39.1119 35.5469 41.3341 35.5469 48.0007L35.5469 55.1118L300.436 55.1118Z" fill="white"/>
<path d="M332.436 176.254L3.54688 176.254L3.54688 137.143L299.547 137.143L299.547 104.699L332.436 104.699L332.436 176.254Z" fill="white"/>
<path d="M297.325 228.787L201.325 228.787C189.325 228.787 183.102 231.009 183.102 237.676L183.102 244.342L332.436 244.342L332.436 283.453L3.54688 283.453L3.54688 234.12C3.54688 206.12 21.7691 190.12 56.8802 190.12L127.991 190.12C146.658 190.12 160.436 195.454 169.325 210.565C178.214 195.454 188.436 189.676 206.658 189.676L297.325 189.676C308.88 189.676 320.88 188.787 332.436 185.232L332.436 224.787C322.214 227.898 308.436 228.787 297.325 228.787ZM132.88 229.231L53.7691 229.231C41.7691 229.231 35.5469 231.453 35.5469 237.676L35.5469 244.342L151.547 244.342L151.547 237.676C151.547 231.453 145.325 229.231 132.88 229.231Z" fill="white"/>
<path d="M56.8889 296.866L279.111 296.866C316.889 296.866 336 314.199 336 344.421C336 374.643 316.889 391.977 279.111 391.977L56.8889 391.977C19.1111 391.977 2.06667e-07 374.643 5.67009e-07 344.421C9.2735e-07 314.199 19.1111 296.866 56.8889 296.866ZM286.667 352.866C297.778 352.866 304.444 351.088 304.444 344.421C304.444 338.199 297.778 335.977 286.667 335.977L49.3333 335.977C38.2222 335.977 31.5555 338.199 31.5555 344.421C31.5555 351.088 38.2222 352.866 49.3333 352.866L286.667 352.866Z" fill="white"/>
<path d="M332.436 455.751L137.769 465.973L137.769 466.862L332.436 477.528L332.436 515.306L3.54688 535.75L3.54688 497.972L200.88 489.973L200.88 489.528L3.54688 479.75L3.54688 450.417L200.88 440.64L200.88 439.751L3.54688 432.195L3.54688 397.529L332.436 417.973L332.436 455.751Z" fill="white"/>
<path d="M74.6076 965.17C74.5588 965.224 73.8214 965.321 73.5882 965.305C73.3388 965.289 72.9212 965.294 70.9583 965.343C69.7002 965.375 69.299 965.402 69.1959 965.462C69.12 965.505 68.8272 965.559 68.5452 965.586C67.6776 965.657 66.81 965.803 66.5281 965.922C66.3708 965.992 66.1214 966.009 65.4056 966.009C64.6085 966.009 64.4458 966.025 64.2072 966.117C64.0554 966.177 63.8114 966.225 63.665 966.225C63.5185 966.225 63.2745 966.274 63.1227 966.334C62.9438 966.404 62.7214 966.442 62.472 966.442C62.2226 966.442 62.0002 966.48 61.8213 966.55C61.6695 966.61 61.4743 966.658 61.3875 966.658C61.3007 966.658 61.1055 966.707 60.9537 966.767C60.8019 966.826 60.6066 966.875 60.5199 966.875C60.4331 966.875 60.2379 966.924 60.0861 966.983C59.9288 967.043 59.6848 967.091 59.5113 967.091C59.3432 967.091 59.1371 967.129 59.045 967.178C58.9311 967.237 58.8118 967.254 58.6274 967.227C58.3943 967.194 58.3183 967.216 57.8086 967.465C57.429 967.654 57.1796 967.741 57.0386 967.741C56.9247 967.741 56.7512 967.779 56.659 967.828C56.5018 967.909 56.4204 967.909 56.0571 967.817C55.927 967.784 55.8782 967.811 55.7264 967.979C55.6233 968.087 55.4932 968.174 55.4335 968.174C55.3739 968.174 55.2221 968.223 55.0919 968.282C54.9618 968.342 54.772 968.39 54.6744 968.39C54.5768 968.39 54.4087 968.428 54.2948 968.477C54.1864 968.526 53.9532 968.58 53.7797 968.607C53.5573 968.639 53.4055 968.699 53.2537 968.824C53.0964 968.948 52.95 969.008 52.7169 969.04C52.5433 969.062 52.3264 969.121 52.2343 969.17C52.1421 969.219 52.0173 969.257 51.9523 969.257C51.8276 969.257 50.8949 969.706 50.7485 969.841C50.6238 969.949 50.6238 970.106 50.7593 970.328C50.8949 970.55 51.7571 970.989 52.0553 970.989C52.1638 970.989 52.359 971.037 52.4891 971.097C52.6193 971.157 52.7711 971.205 52.8253 971.205C52.885 971.205 53.0747 971.276 53.2537 971.368C53.4326 971.454 53.6604 971.53 53.7634 971.53C54.0454 971.53 54.4792 971.66 54.9347 971.877C55.1624 971.99 55.4227 972.071 55.5312 972.071C55.6396 972.071 55.8945 972.153 56.1276 972.266C56.4367 972.418 56.6373 972.472 56.9464 972.504C57.3097 972.537 57.3911 972.564 57.6188 972.737C57.7598 972.851 57.9333 972.937 58.0038 972.937C58.0689 972.937 58.3292 973.035 58.5732 973.154C58.8443 973.284 59.0992 973.371 59.2185 973.371C59.3378 973.371 59.5926 973.457 59.8638 973.587C60.1078 973.706 60.3572 973.804 60.4114 973.804C60.4657 973.804 60.8181 973.955 61.1923 974.134C61.8376 974.453 61.8809 974.464 62.0924 974.41C62.2985 974.361 62.331 974.367 62.4883 974.507C62.7052 974.691 63.0793 974.886 63.2312 974.886C63.2908 974.886 63.4372 974.935 63.5565 974.994C63.6758 975.054 63.8222 975.103 63.8819 975.103C63.9415 975.103 64.0879 975.151 64.2072 975.211C64.3265 975.271 64.4729 975.319 64.5326 975.319C64.5922 975.319 64.7386 975.368 64.8579 975.428C64.9772 975.487 65.1236 975.536 65.1833 975.536C65.2483 975.536 65.3731 975.574 65.4652 975.622C65.5574 975.671 65.7743 975.731 65.9478 975.752C66.181 975.785 66.3274 975.844 66.5172 975.99C66.6582 976.099 66.8317 976.185 66.9022 976.185C66.9727 976.185 67.2221 976.283 67.4607 976.402C67.6993 976.521 67.9379 976.618 67.9976 976.618C68.0518 976.618 68.2036 976.667 68.3338 976.727C68.4639 976.786 68.6591 976.835 68.7676 976.835C68.876 976.835 69.1471 976.927 69.4074 977.051C69.6514 977.171 69.9009 977.268 69.9605 977.268C70.0202 977.268 70.1449 977.306 70.2371 977.355C70.3293 977.403 70.5462 977.463 70.7197 977.485C70.9528 977.517 71.0993 977.577 71.289 977.723C71.43 977.831 71.5981 977.918 71.6632 977.918C71.7337 977.918 71.8909 977.966 72.0211 978.026C72.1512 978.085 72.3464 978.134 72.4495 978.134C72.6826 978.134 73.1435 978.345 73.4418 978.583C73.6587 978.751 73.6858 978.757 74.2389 978.773L74.8083 978.789L75.2583 978.573C75.5078 978.448 75.7681 978.351 75.8331 978.351C75.8982 978.351 76.0554 978.275 76.1802 978.183C76.3808 978.037 76.4296 978.02 76.6465 978.053C76.8688 978.085 76.9122 978.075 77.1454 977.896C77.2864 977.788 77.4599 977.701 77.5304 977.701C77.6768 977.701 78.1431 977.479 78.3926 977.29C78.4902 977.214 78.6366 977.16 78.7396 977.16C78.8481 977.16 78.989 977.106 79.1029 977.019C79.2222 976.932 79.3957 976.862 79.6018 976.835C79.9271 976.792 80.2742 976.64 80.5616 976.424C80.6646 976.342 80.8056 976.294 80.9195 976.294C81.0713 976.294 81.1689 976.239 81.3912 976.045C81.6244 975.839 81.7112 975.79 81.9769 975.752C82.1829 975.725 82.5083 975.601 82.9095 975.406C83.3054 975.211 83.5982 975.103 83.7229 975.103C83.9995 975.097 84.3736 974.913 84.6014 974.67C84.7912 974.464 84.8183 974.453 85.1273 974.453C85.4256 974.453 85.5286 974.415 86.3257 974.02C86.8083 973.782 87.253 973.587 87.3126 973.587C87.4699 973.587 88.7767 972.916 88.9231 972.759C89.0262 972.651 89.0858 972.629 89.2539 972.651C89.384 972.667 89.5196 972.645 89.6281 972.591C89.7202 972.542 89.8558 972.504 89.9263 972.504C89.9968 972.504 90.1757 972.418 90.3167 972.304C90.5445 972.131 90.6258 972.104 90.9945 972.071C91.3633 972.039 91.4446 972.012 91.6723 971.839C91.8133 971.725 91.9923 971.638 92.0628 971.638C92.1333 971.638 92.3827 971.541 92.6213 971.422C92.8599 971.303 93.1093 971.205 93.1798 971.205C93.2503 971.205 93.4238 971.119 93.5648 971.01C93.7546 970.864 93.901 970.805 94.1342 970.772C94.4595 970.729 94.8066 970.577 95.094 970.361C95.1916 970.285 95.338 970.231 95.4464 970.231C95.5657 970.231 95.7067 970.171 95.8423 970.069C95.9616 969.977 96.1134 969.906 96.1839 969.906C96.2544 969.906 96.39 969.868 96.4876 969.814C96.5852 969.765 96.8563 969.711 97.0895 969.69C97.5178 969.652 97.5233 969.652 97.7835 969.376C98.1143 969.029 98.1306 968.845 97.8595 968.575C97.751 968.466 97.6209 968.39 97.5395 968.39C97.4636 968.39 97.3009 968.342 97.1708 968.282C97.0407 968.223 96.8563 968.174 96.7587 968.174C96.6611 968.174 96.4604 968.125 96.3086 968.066C96.1568 968.006 95.9616 967.957 95.8748 967.957C95.7881 967.957 95.5928 967.909 95.441 967.849C95.2892 967.79 95.094 967.741 95.0072 967.741C94.9204 967.741 94.7252 967.692 94.5734 967.633C94.4216 967.573 94.2209 967.524 94.1233 967.524C94.0257 967.524 93.7438 967.427 93.4889 967.308C93.0822 967.118 92.9792 967.091 92.6213 967.091C92.3339 967.091 92.1441 967.059 91.976 966.983C91.8459 966.924 91.6995 966.875 91.6452 966.875C91.591 966.875 91.4446 966.826 91.3145 966.767C91.1843 966.707 91 966.658 90.9023 966.658C90.8047 966.658 90.6041 966.61 90.4523 966.55C90.2462 966.469 90.051 966.442 89.6606 966.442C89.3461 966.442 89.0966 966.415 89.0262 966.371C88.9611 966.339 88.7496 966.306 88.5544 966.301C88.1152 966.296 87.6163 966.209 87.3506 966.095C87.2313 966.041 86.9927 966.009 86.7704 966.009C86.5155 966.009 86.2986 965.971 86.1143 965.9C85.8757 965.808 85.713 965.792 84.9213 965.792C84.1296 965.792 83.9669 965.776 83.7283 965.684C83.5765 965.624 83.3813 965.576 83.2945 965.576C83.2078 965.576 83.0126 965.527 82.8607 965.467C82.6167 965.37 82.4595 965.359 81.4617 965.359C80.4423 965.359 80.3067 965.348 80.0085 965.24C79.6831 965.126 79.6669 965.126 79.4662 965.213C79.2764 965.3 79.2059 965.3 78.7938 965.245C78.539 965.208 78.1702 965.181 77.9696 965.186C77.7635 965.186 77.4816 965.191 77.3297 965.191C76.2561 965.186 75.8602 965.186 75.6488 965.197C75.5132 965.202 75.2366 965.186 75.0252 965.17C74.8191 965.148 74.6293 965.148 74.6076 965.17Z" fill="white"/>
<path d="M100.353 979.381C100.168 979.543 99.9894 979.651 99.9135 979.651C99.843 979.651 99.5827 979.749 99.3387 979.868C99.0568 980.003 98.8127 980.084 98.6826 980.084C98.5362 980.084 98.4277 980.128 98.303 980.241C98.2054 980.323 98.0265 980.409 97.9072 980.431C97.7879 980.447 97.5493 980.485 97.3812 980.512C97.1697 980.544 97.0016 980.615 96.8661 980.723C96.5895 980.934 96.1232 981.167 95.9659 981.167C95.8954 981.167 95.7219 981.254 95.5809 981.356C95.2447 981.616 94.8055 981.817 94.5669 981.817C94.4584 981.817 94.1927 981.909 93.927 982.033C93.683 982.152 93.4336 982.25 93.3739 982.25C93.3143 982.25 93.1733 982.298 93.054 982.358C92.9347 982.417 92.7829 982.466 92.7124 982.466C92.6419 982.466 92.4684 982.553 92.3274 982.661C92.1322 982.807 91.9912 982.867 91.7472 982.899C91.514 982.932 91.3676 982.991 91.2104 983.116C91.0531 983.24 90.9067 983.3 90.6952 983.327C90.4783 983.359 90.3536 983.408 90.2451 983.511C90.1584 983.592 90.0337 983.657 89.9577 983.657C89.8873 983.657 89.73 983.733 89.6161 983.819C89.4968 983.911 89.345 983.982 89.2745 983.982C89.204 983.982 89.0522 984.03 88.9329 984.09C88.8136 984.15 88.6618 984.198 88.5913 984.198C88.5208 984.198 88.3473 984.285 88.2063 984.393C88.0165 984.539 87.8701 984.599 87.6315 984.631C87.3929 984.664 87.2465 984.723 87.0567 984.87C86.9157 984.978 86.7476 985.064 86.6825 985.064C86.612 985.064 86.4548 985.113 86.3246 985.173C86.1728 985.238 85.9668 985.281 85.7661 985.281C85.4679 985.281 85.4408 985.292 85.251 985.492C85.0015 985.757 84.7684 985.876 84.3725 985.93C84.1394 985.963 83.993 986.022 83.8032 986.169C83.6622 986.277 83.4887 986.364 83.4182 986.364C83.3477 986.364 83.1958 986.412 83.0765 986.472C82.9573 986.531 82.8163 986.58 82.7512 986.58C82.6915 986.58 82.4638 986.667 82.2523 986.775C82.0354 986.883 81.7263 986.991 81.5474 987.013C81.2763 987.051 81.1895 987.1 80.8804 987.36C80.6581 987.549 80.4737 987.663 80.387 987.663C80.143 987.663 80.0237 987.852 80.0616 988.166C80.0833 988.323 80.0942 988.54 80.0942 988.648C80.0833 988.978 80.0833 990.326 80.0942 990.894C80.0996 991.187 80.0833 991.501 80.067 991.593C80.0399 991.712 80.0616 991.825 80.143 991.982C80.2514 992.199 80.2568 992.28 80.2568 994.397V996.583L80.4358 996.795C80.913 997.363 81.4661 997.839 81.645 997.839C81.8456 997.839 82.3065 998.094 82.6861 998.413C82.8759 998.575 83.0494 998.705 83.0765 998.705C83.1037 998.705 83.2772 998.835 83.467 998.998C83.6568 999.155 83.9713 999.366 84.1611 999.463C84.3563 999.561 84.6491 999.756 84.8118 999.896C84.9744 1000.04 85.2673 1000.23 85.4625 1000.33C85.6577 1000.43 85.9505 1000.62 86.1132 1000.76C86.4385 1001.04 86.9103 1001.3 87.0892 1001.3C87.1489 1001.3 87.3061 1001.41 87.4363 1001.55C87.5718 1001.68 87.6965 1001.79 87.7237 1001.79C87.7453 1001.79 87.8755 1001.89 88.0111 1002.02C88.4828 1002.46 88.6726 1002.6 88.8027 1002.6C89.0251 1002.6 89.5402 1002.91 89.9089 1003.25C90.1584 1003.49 90.4403 1003.67 90.885 1003.9C91.3296 1004.13 91.6116 1004.31 91.8611 1004.55C92.0563 1004.74 92.387 1004.97 92.5931 1005.08C92.8046 1005.18 93.0594 1005.34 93.1625 1005.42C93.2655 1005.5 93.4282 1005.6 93.5149 1005.65C93.6071 1005.7 93.7752 1005.83 93.8945 1005.94C94.3283 1006.35 94.5289 1006.5 94.6591 1006.5C94.8597 1006.5 95.223 1006.7 95.467 1006.94C95.9008 1007.38 96.4756 1007.8 96.6329 1007.8C96.7847 1007.8 96.9528 1007.92 97.4463 1008.38C97.5818 1008.51 97.712 1008.61 97.7337 1008.61C97.7608 1008.61 97.8855 1008.72 98.0211 1008.85C98.2108 1009.05 98.2922 1009.1 98.444 1009.1C98.726 1009.1 98.8453 1009.16 99.2357 1009.53C99.6099 1009.88 100.12 1010.18 100.342 1010.18C100.423 1010.18 100.608 1010.29 100.819 1010.47C101.009 1010.63 101.237 1010.8 101.323 1010.85C101.416 1010.9 101.66 1011.09 101.866 1011.29C102.077 1011.49 102.299 1011.65 102.37 1011.67C102.435 1011.69 102.543 1011.71 102.614 1011.72C102.679 1011.73 102.945 1011.95 103.194 1012.19C103.867 1012.84 104.056 1013 104.214 1013C104.447 1013 104.891 1013.27 105.309 1013.65C105.58 1013.89 105.889 1014.09 106.328 1014.32C106.854 1014.59 106.99 1014.68 107.115 1014.88C107.229 1015.04 107.364 1015.16 107.603 1015.28C107.787 1015.37 108.026 1015.51 108.129 1015.59C108.232 1015.68 108.454 1015.81 108.617 1015.89C108.779 1015.97 108.991 1016.11 109.088 1016.19C109.251 1016.34 109.262 1016.34 109.549 1016.27C109.707 1016.24 109.967 1016.14 110.13 1016.06C110.374 1015.94 110.46 1015.91 110.683 1015.95C110.943 1015.98 110.954 1015.98 111.274 1015.7C111.55 1015.46 111.637 1015.42 111.919 1015.38C112.093 1015.36 112.293 1015.3 112.358 1015.27C112.423 1015.24 112.624 1015.18 112.797 1015.16C113.031 1015.13 113.177 1015.07 113.334 1014.94C113.492 1014.82 113.638 1014.76 113.871 1014.73C114.045 1014.71 114.262 1014.65 114.354 1014.6C114.446 1014.55 114.581 1014.51 114.652 1014.51C114.722 1014.51 114.912 1014.41 115.07 1014.3C115.227 1014.18 115.417 1014.08 115.482 1014.08C115.547 1014.08 115.704 1014.03 115.834 1013.97C115.964 1013.91 116.159 1013.86 116.262 1013.86C116.365 1013.86 116.561 1013.81 116.691 1013.75C116.821 1013.69 116.978 1013.65 117.043 1013.65C117.26 1013.64 117.694 1013.36 117.743 1013.19C117.77 1013.09 117.835 1012.94 117.884 1012.83C117.954 1012.68 117.976 1012.37 118.009 1011.35C118.057 1009.72 118.057 1009.76 118.019 1009.17C117.992 1008.74 118.003 1008.65 118.106 1008.45C118.209 1008.25 118.22 1008.16 118.193 1007.62C118.144 1006.64 118.182 1006 118.328 1005.2C118.361 1005.01 118.388 1004.46 118.388 1003.99C118.388 1003.53 118.383 1003.05 118.383 1002.94C118.377 1002.15 118.486 999.631 118.535 999.301C118.583 998.987 118.583 998.846 118.529 998.689C118.48 998.521 118.48 998.446 118.54 998.31C118.594 998.186 118.627 997.785 118.648 996.865C118.67 995.793 118.692 995.566 118.773 995.42C118.854 995.268 118.865 995.084 118.865 993.942C118.865 992.746 118.876 992.621 118.974 992.426C119.055 992.264 119.082 992.107 119.082 991.76C119.082 991.327 119.071 991.295 118.903 991.068C118.8 990.938 118.681 990.754 118.627 990.656C118.578 990.559 118.486 990.445 118.415 990.396C117.862 990.012 117.705 989.909 117.347 989.72C117.125 989.601 116.821 989.417 116.669 989.314C116.523 989.211 116.29 989.054 116.154 988.962C116.018 988.87 115.791 988.713 115.639 988.61C115.492 988.507 115.297 988.383 115.205 988.334C115.118 988.28 114.891 988.112 114.701 987.95C114.484 987.766 114.31 987.663 114.218 987.663C114.126 987.663 114.012 987.592 113.882 987.452C113.774 987.338 113.551 987.175 113.389 987.094C113.226 987.013 113.004 986.878 112.9 986.797C112.797 986.715 112.559 986.575 112.375 986.483C112.196 986.391 111.99 986.239 111.924 986.147C111.859 986.055 111.642 985.898 111.447 985.795C111.106 985.617 110.905 985.487 110.271 985.037C110.124 984.934 109.945 984.848 109.88 984.848C109.81 984.848 109.707 984.794 109.647 984.723C109.251 984.274 109.164 984.198 109.013 984.198C108.91 984.198 108.747 984.117 108.562 983.982C108.405 983.863 108.253 983.765 108.232 983.765C108.21 983.765 108.015 983.619 107.803 983.44C107.532 983.213 107.37 983.116 107.266 983.116C107.18 983.116 107.012 983.04 106.876 982.932C106.746 982.834 106.502 982.683 106.339 982.601C106.177 982.52 105.943 982.352 105.824 982.228C105.699 982.109 105.482 981.925 105.336 981.827C105.184 981.73 104.946 981.568 104.794 981.465C104.647 981.362 104.36 981.194 104.159 981.086C103.964 980.983 103.747 980.826 103.682 980.734C103.547 980.544 103.102 980.301 102.89 980.301C102.755 980.301 102.652 980.214 102.272 979.77C102.213 979.705 102.11 979.651 102.039 979.651C101.969 979.651 101.795 979.565 101.654 979.456C101.437 979.294 100.955 979.11 100.732 979.11C100.694 979.11 100.521 979.229 100.353 979.381Z" fill="white"/>
<path d="M47.8779 980.555C47.8345 980.577 47.6447 980.718 47.4549 980.88C47.2163 981.08 47.0645 981.167 46.956 981.167C46.7445 981.167 45.8878 981.849 45.6384 982.217C45.5841 982.293 45.3618 982.45 45.1503 982.553C44.9334 982.661 44.6731 982.818 44.5701 982.899C44.4671 982.98 44.3098 983.083 44.2176 983.132C44.1309 983.181 43.8977 983.365 43.7025 983.549C43.3229 983.906 43.1874 983.982 42.9434 983.982C42.6993 983.982 42.6288 984.031 42.4282 984.328C42.2113 984.653 41.5823 985.167 41.0184 985.476C40.9316 985.525 40.7689 985.633 40.6659 985.714C40.5629 985.795 40.411 985.893 40.3297 985.936C40.2538 985.979 40.0098 986.169 39.7983 986.364C39.5814 986.558 39.2235 986.813 38.9957 986.932C38.6867 987.094 38.5403 987.208 38.4264 987.381C38.3179 987.544 38.1715 987.663 37.9384 987.782C37.754 987.874 37.5154 988.015 37.4124 988.096C37.3093 988.177 37.1521 988.28 37.0599 988.329C36.9731 988.377 36.74 988.561 36.5448 988.745C36.3496 988.929 36.1218 989.113 36.0296 989.162C35.9429 989.211 35.7693 989.319 35.65 989.406C35.2325 989.703 34.8909 989.936 34.7282 990.023C34.6415 990.077 34.4137 990.245 34.2239 990.407C34.0341 990.564 33.8606 990.694 33.8335 990.694C33.8118 990.694 33.6112 990.84 33.3997 991.019C33.1557 991.219 32.9605 991.344 32.8791 991.344C32.8032 991.344 32.7002 991.398 32.6405 991.463C32.2338 991.934 32.1579 991.993 31.9898 991.993C31.8597 991.993 31.7729 992.042 31.6374 992.188C31.415 992.437 31.2415 992.61 30.9921 992.832L30.7969 993.011V994.234C30.7969 995.301 30.8077 995.485 30.8891 995.636C31.0192 995.869 31.1222 997.082 31.0409 997.439C31.0138 997.558 31.0355 997.661 31.106 997.791C31.1819 997.931 31.209 998.137 31.2361 998.705C31.2524 999.149 31.2957 999.507 31.3391 999.609C31.4042 999.761 31.4042 999.815 31.3446 999.961C31.2144 1000.28 31.209 1000.62 31.3337 1000.86C31.4367 1001.06 31.4476 1001.17 31.4476 1002.06C31.4476 1002.93 31.4584 1003.06 31.556 1003.25C31.6374 1003.41 31.6645 1003.57 31.6645 1003.9C31.6645 1004.22 31.6916 1004.39 31.7621 1004.51C31.838 1004.66 31.8597 1004.88 31.8814 1005.85C31.9031 1006.69 31.9356 1007.06 31.9898 1007.19C32.0549 1007.34 32.0549 1007.39 31.9953 1007.54C31.8651 1007.85 31.8597 1008.19 31.9844 1008.44C32.0874 1008.64 32.0983 1008.75 32.0983 1009.75C32.0983 1010.68 32.1146 1010.86 32.1905 1011.01C32.2555 1011.12 32.2989 1011.36 32.3206 1011.7C32.3369 1011.98 32.3857 1012.29 32.4236 1012.38C32.4833 1012.52 32.4833 1012.6 32.4345 1012.76C32.3857 1012.92 32.3803 1013.07 32.4236 1013.37C32.4562 1013.6 32.4996 1013.97 32.5212 1014.19C32.57 1014.72 32.6188 1014.78 33.3129 1015.11C33.763 1015.33 33.904 1015.38 34.1534 1015.38C34.392 1015.38 34.5547 1015.43 34.918 1015.59C35.2759 1015.76 35.444 1015.81 35.6772 1015.81C36.0134 1015.81 36.4255 1015.98 36.7617 1016.24C36.8755 1016.34 37.1087 1016.47 37.2714 1016.55C37.5588 1016.68 37.5967 1016.68 37.8462 1016.62C38.101 1016.55 38.1173 1016.56 38.3071 1016.7C38.4372 1016.8 38.6053 1016.86 38.8168 1016.89C38.9957 1016.92 39.191 1016.97 39.256 1017C39.3211 1017.03 39.5217 1017.09 39.6953 1017.11C39.9338 1017.14 40.0748 1017.2 40.2375 1017.33C40.3568 1017.42 40.5466 1017.52 40.655 1017.55C40.7635 1017.57 40.9695 1017.63 41.1051 1017.68L41.3491 1017.78L41.7016 1017.61C42.1788 1017.38 42.6126 1017.06 42.7753 1016.81C42.8512 1016.69 43.0193 1016.54 43.144 1016.47C43.6591 1016.15 43.8923 1015.98 44.2068 1015.72C44.3912 1015.57 44.6189 1015.41 44.7057 1015.36C44.7979 1015.31 45.0256 1015.13 45.2208 1014.94C45.416 1014.76 45.7576 1014.52 45.98 1014.4C46.4463 1014.15 46.8638 1013.86 47.1295 1013.6C47.3627 1013.36 48.0893 1012.78 48.149 1012.78C48.1761 1012.78 48.3496 1012.65 48.5394 1012.49C48.7292 1012.33 48.9569 1012.16 49.0437 1012.11C49.1359 1012.07 49.4124 1011.83 49.6673 1011.59C50.1607 1011.12 50.2746 1011.05 50.5674 1011.05C50.6976 1011.05 50.7898 1011.01 50.8603 1010.92C50.9633 1010.8 51.1205 1010.65 51.5814 1010.2C51.7062 1010.08 51.961 1009.9 52.1454 1009.81C52.3298 1009.72 52.525 1009.57 52.5792 1009.5C52.7636 1009.23 52.9154 1009.1 53.051 1009.1C53.1323 1009.1 53.3275 1008.98 53.5715 1008.77C53.783 1008.6 53.9782 1008.45 54.0053 1008.45C54.0324 1008.45 54.2276 1008.3 54.4391 1008.12C54.7103 1007.9 54.8729 1007.8 54.9814 1007.8C55.1603 1007.8 55.3881 1007.63 55.4965 1007.42C55.5724 1007.28 55.7948 1007.1 56.3912 1006.72C56.5051 1006.64 56.7112 1006.51 56.8522 1006.42C56.9877 1006.33 57.2751 1006.12 57.4812 1005.94C57.6926 1005.77 57.8824 1005.63 57.9095 1005.63C57.9367 1005.63 58.1319 1005.49 58.3433 1005.31C58.5548 1005.13 58.75 1004.98 58.7772 1004.98C58.8043 1004.98 58.9995 1004.84 59.211 1004.66C59.4224 1004.48 59.6231 1004.34 59.6448 1004.34C59.6719 1004.34 59.8454 1004.21 60.0352 1004.05C60.225 1003.89 60.4527 1003.72 60.5503 1003.67C60.6479 1003.62 60.7672 1003.51 60.8214 1003.44C61.0058 1003.17 61.1576 1003.04 61.2932 1003.04C61.38 1003.04 61.5589 1002.93 61.7704 1002.75C61.9602 1002.59 62.1879 1002.42 62.2747 1002.36C62.4374 1002.28 62.779 1002.05 63.1965 1001.75C63.3158 1001.66 63.4893 1001.55 63.5761 1001.5C63.6683 1001.46 63.896 1001.27 64.0912 1001.09C64.2864 1000.9 64.5196 1000.72 64.6064 1000.67C64.6986 1000.62 64.9046 1000.47 65.0673 1000.33C65.23 1000.19 65.5391 999.988 65.7451 999.88C65.9945 999.756 66.2819 999.539 66.5856 999.247C66.8405 999.003 67.1224 998.765 67.2092 998.722C67.3014 998.673 67.4586 998.57 67.5617 998.489C67.6647 998.408 67.925 998.251 68.131 998.143C68.6462 997.877 69.1071 997.531 69.2698 997.287C69.3402 997.174 69.4541 997.011 69.5138 996.93C69.6222 996.784 69.6276 996.73 69.6005 995.512C69.568 993.893 69.5517 993.552 69.5029 993.476C69.4812 993.444 69.4867 993.07 69.5138 992.643C69.5572 991.982 69.5517 991.847 69.4812 991.706C69.4216 991.598 69.4053 991.49 69.4324 991.376C69.4704 991.23 69.4758 990.84 69.4595 990.164C69.4541 990.055 69.4812 989.806 69.5138 989.611C69.6493 988.843 69.6439 988.567 69.4921 988.269C69.3511 987.988 69.221 987.879 69.0366 987.879C68.9824 987.879 68.8034 987.782 68.6462 987.663C68.4889 987.544 68.2991 987.446 68.2286 987.446C68.1581 987.446 68.0063 987.397 67.887 987.338C67.7677 987.278 67.6213 987.23 67.5617 987.23C67.502 987.23 67.3556 987.181 67.2363 987.121C67.117 987.062 66.9652 987.013 66.8947 987.013C66.8242 987.013 66.6507 986.927 66.5097 986.818C66.3199 986.672 66.1735 986.613 65.9403 986.58C65.7668 986.558 65.5499 986.499 65.4577 986.45C65.3655 986.401 65.2408 986.364 65.1812 986.364C65.1215 986.364 64.8721 986.266 64.6281 986.147C64.3678 986.023 64.0967 985.931 63.9882 985.931C63.8798 985.931 63.6845 985.882 63.5544 985.822C63.4243 985.763 63.2724 985.714 63.2182 985.714C63.1586 985.714 63.0176 985.665 62.8983 985.606C62.779 985.546 62.6326 985.497 62.5729 985.497C62.5133 985.497 62.3669 985.449 62.2476 985.389C62.1283 985.33 61.9873 985.281 61.9222 985.281C61.8626 985.281 61.5426 985.146 61.2064 984.978C60.6588 984.702 60.5829 984.68 60.366 984.713C60.1653 984.74 60.1003 984.729 59.9538 984.615C59.7153 984.437 59.2381 984.198 59.1079 984.198C59.0537 984.198 58.9019 984.15 58.7717 984.09C58.6416 984.031 58.4464 983.982 58.3433 983.982C58.2403 983.982 58.0451 983.933 57.915 983.874C57.7848 983.814 57.6384 983.765 57.5788 983.765C57.5245 983.765 57.1829 983.619 56.8196 983.441C56.375 983.224 56.093 983.116 55.9629 983.116C55.8381 983.116 55.5887 983.029 55.3122 982.899C55.0681 982.78 54.8187 982.683 54.7591 982.683C54.6994 982.683 54.5584 982.634 54.4391 982.574C54.3198 982.515 54.1734 982.466 54.1138 982.466C54.0541 982.466 53.9077 982.417 53.7884 982.358C53.6691 982.298 53.5173 982.25 53.4468 982.25C53.3763 982.25 53.2028 982.163 53.0618 982.055C52.872 981.914 52.7256 981.849 52.4979 981.817C52.2972 981.79 51.9664 981.665 51.5706 981.47C51.1639 981.27 50.8874 981.167 50.7518 981.167C50.6325 981.167 50.3776 981.08 50.1065 980.95C49.8625 980.831 49.6131 980.734 49.5588 980.734C49.5046 980.734 49.3582 980.685 49.2281 980.626C48.9895 980.523 48.0948 980.474 47.8779 980.555Z" fill="white"/>
<path d="M129.82 990.109C129.614 990.223 129.565 990.336 129.641 990.547C129.739 990.813 129.722 991.105 129.592 991.348C129.462 991.608 129.468 992.377 129.598 992.68C129.663 992.832 129.663 992.886 129.598 993.032C129.489 993.286 129.402 994.856 129.462 995.381C129.489 995.598 129.478 995.701 129.397 995.841C129.305 996.02 129.272 996.843 129.223 1000.33C129.218 1000.43 129.234 1000.74 129.251 1001.02C129.272 1001.43 129.261 1001.54 129.18 1001.69C129.093 1001.86 129.077 1002.09 129.045 1004.25C129.001 1006.91 129.001 1006.88 129.012 1007.46C129.012 1007.69 128.985 1008.06 128.952 1008.29C128.904 1008.59 128.904 1008.74 128.958 1008.9C129.007 1009.07 129.007 1009.14 128.947 1009.28C128.876 1009.43 128.855 1009.75 128.773 1011.75C128.763 1011.95 128.725 1012.16 128.687 1012.23C128.632 1012.32 128.622 1012.49 128.643 1012.85C128.681 1013.47 128.681 1013.61 128.643 1014.22C128.611 1014.76 128.698 1015.03 129.055 1015.49C129.137 1015.59 129.245 1015.76 129.294 1015.85C129.343 1015.95 129.527 1016.17 129.706 1016.35C129.885 1016.53 130.069 1016.75 130.113 1016.84C130.162 1016.93 130.286 1017.06 130.4 1017.13C130.715 1017.33 131.311 1017.93 131.441 1018.19C131.506 1018.32 131.929 1018.79 132.417 1019.27C132.889 1019.75 133.328 1020.23 133.393 1020.36C133.453 1020.48 133.697 1020.77 133.936 1021.01C134.174 1021.25 134.413 1021.53 134.478 1021.64C134.684 1022.02 135.031 1022.47 135.177 1022.55C135.362 1022.64 136.159 1023.42 136.159 1023.5C136.159 1023.53 136.36 1023.76 136.609 1024C136.853 1024.24 137.102 1024.51 137.151 1024.6C137.205 1024.68 137.341 1024.8 137.46 1024.88C137.618 1024.97 137.726 1025.12 137.867 1025.39C137.97 1025.6 138.122 1025.81 138.198 1025.86C138.512 1026.08 139.033 1026.64 139.033 1026.77C139.033 1026.84 139.114 1027 139.212 1027.13C139.315 1027.26 139.423 1027.42 139.461 1027.49C139.494 1027.56 139.618 1027.67 139.727 1027.74C140.014 1027.92 140.633 1028.54 140.741 1028.75C140.795 1028.86 140.969 1029.09 141.126 1029.28C141.289 1029.47 141.419 1029.67 141.419 1029.72C141.419 1029.9 141.484 1029.99 141.722 1030.15C141.853 1030.25 142.069 1030.39 142.205 1030.49C142.341 1030.58 142.487 1030.72 142.53 1030.79C142.574 1030.87 142.709 1031.05 142.829 1031.18C142.948 1031.32 143.1 1031.52 143.159 1031.64C143.29 1031.88 143.68 1032.28 143.978 1032.46C144.092 1032.53 144.217 1032.66 144.26 1032.74C144.309 1032.82 144.434 1032.99 144.537 1033.11C144.645 1033.22 144.792 1033.41 144.868 1033.52C144.938 1033.63 145.046 1033.75 145.106 1033.78C145.166 1033.81 145.28 1033.94 145.361 1034.07C145.556 1034.38 146.169 1034.97 146.294 1034.97C146.516 1034.97 146.624 1034.72 146.624 1034.23C146.624 1033.92 146.652 1033.72 146.711 1033.61C146.765 1033.5 146.787 1033.38 146.76 1033.27C146.689 1032.92 146.689 1032.14 146.765 1031.98C146.868 1031.78 146.863 1031.65 146.733 1031.4C146.657 1031.26 146.624 1031.08 146.624 1030.86C146.624 1030.63 146.592 1030.46 146.511 1030.31C146.418 1030.12 146.402 1030.03 146.429 1029.7C146.494 1028.94 146.429 1028.17 146.283 1027.9C146.201 1027.75 146.191 1027.55 146.191 1026.42C146.191 1025.22 146.18 1025.1 146.082 1024.9C146.023 1024.79 145.974 1024.59 145.974 1024.47C145.974 1024.35 145.925 1024.16 145.865 1024.04C145.789 1023.9 145.757 1023.72 145.757 1023.5C145.757 1023.27 145.724 1023.1 145.643 1022.94C145.556 1022.77 145.54 1022.67 145.567 1022.45C145.638 1021.87 145.594 1021.53 145.415 1021.19C145.366 1021.09 145.323 1020.91 145.323 1020.79C145.323 1020.67 145.274 1020.48 145.215 1020.36C145.155 1020.24 145.106 1020.04 145.106 1019.92C145.106 1019.81 145.057 1019.61 144.998 1019.49C144.911 1019.32 144.889 1019.17 144.889 1018.72V1018.16L144.672 1017.87C144.553 1017.71 144.455 1017.52 144.455 1017.45C144.455 1017.37 144.423 1017.27 144.39 1017.2C144.352 1017.14 144.314 1016.93 144.309 1016.73C144.293 1016.11 144.211 1015.75 144.005 1015.34C143.897 1015.12 143.805 1014.9 143.805 1014.84C143.805 1014.77 143.756 1014.63 143.696 1014.51C143.637 1014.39 143.588 1014.2 143.588 1014.08C143.588 1013.93 143.517 1013.72 143.371 1013.43C143.192 1013.07 143.154 1012.95 143.154 1012.67C143.154 1012.39 143.116 1012.28 142.937 1011.91C142.818 1011.67 142.72 1011.43 142.72 1011.37C142.72 1011.31 142.623 1011.07 142.503 1010.83C142.384 1010.59 142.286 1010.35 142.286 1010.29C142.286 1010.22 142.238 1010.08 142.178 1009.96C142.118 1009.85 142.069 1009.7 142.069 1009.64C142.069 1009.58 141.923 1009.24 141.744 1008.88C141.565 1008.52 141.419 1008.18 141.419 1008.11C141.419 1008.04 141.321 1007.85 141.202 1007.69C141.023 1007.45 140.985 1007.36 140.985 1007.15C140.985 1006.95 140.947 1006.85 140.822 1006.68C140.714 1006.54 140.66 1006.41 140.66 1006.27C140.66 1006.04 140.562 1005.81 140.334 1005.53C140.128 1005.27 139.9 1004.8 139.9 1004.64C139.9 1004.57 139.803 1004.38 139.684 1004.23C139.564 1004.07 139.467 1003.88 139.467 1003.81C139.467 1003.74 139.342 1003.45 139.196 1003.15C138.941 1002.67 138.794 1002.43 138.388 1001.87C138.301 1001.75 138.1 1001.39 137.948 1001.08C137.791 1000.77 137.596 1000.43 137.515 1000.33C137.433 1000.23 137.238 999.885 137.081 999.576C136.929 999.268 136.728 998.911 136.642 998.791C136.257 998.256 136.094 998.007 135.909 997.655C135.801 997.449 135.644 997.178 135.557 997.059C135.248 996.626 135.02 996.296 134.917 996.107C134.858 996.004 134.706 995.809 134.586 995.674C134.467 995.538 134.326 995.354 134.277 995.268C134.228 995.176 134.125 995.019 134.044 994.916C133.963 994.813 133.86 994.65 133.811 994.564C133.762 994.472 133.621 994.293 133.502 994.158C133.383 994.023 133.231 993.828 133.177 993.725C133.117 993.622 132.981 993.438 132.878 993.319C132.77 993.2 132.623 993.01 132.548 992.902C132.477 992.794 132.374 992.675 132.314 992.648C132.206 992.588 131.837 992.095 131.658 991.76C131.593 991.646 131.355 991.365 131.116 991.126C130.877 990.888 130.639 990.607 130.579 990.493C130.389 990.12 130.091 989.968 129.82 990.109Z" fill="white"/>
<path d="M20.0314 992.823C19.6843 993.012 19.3698 993.294 19.1638 993.602C19.0607 993.759 18.9306 993.911 18.8764 993.943C18.7679 993.997 18.3992 994.49 18.2257 994.815C18.166 994.923 17.9762 995.14 17.8027 995.291C17.5153 995.546 17.4936 995.583 17.5045 995.778C17.5153 995.962 17.4936 996.006 17.3526 996.108C17.2604 996.173 17.152 996.293 17.1086 996.368C17.0652 996.45 16.9297 996.623 16.8104 996.758C16.6857 996.893 16.5013 997.169 16.3928 997.381C16.2898 997.586 16.0675 997.911 15.9102 998.101C15.7259 998.317 15.6174 998.496 15.6174 998.577C15.6174 998.663 15.5361 998.788 15.4005 998.923C15.2107 999.107 15.1836 999.167 15.1836 999.378C15.1836 999.627 15.1131 999.735 14.6197 1000.24C14.4028 1000.47 13.8822 1001.45 13.8822 1001.63C13.8822 1001.69 13.8334 1001.84 13.7737 1001.95C13.7141 1002.07 13.6653 1002.22 13.6653 1002.28C13.6653 1002.34 13.5677 1002.49 13.4484 1002.6C13.3291 1002.72 13.2315 1002.86 13.2315 1002.93C13.2315 1003.07 12.776 1003.98 12.5808 1004.23C12.3856 1004.48 12.147 1004.95 12.147 1005.09C12.147 1005.25 11.4746 1006.58 11.2468 1006.87C11.1004 1007.06 11.0625 1007.16 11.0625 1007.35C11.0625 1007.52 10.9974 1007.71 10.8456 1008.02C10.7263 1008.26 10.6287 1008.5 10.6287 1008.57C10.6287 1008.65 10.5311 1008.83 10.4118 1008.99C10.2383 1009.22 10.1949 1009.33 10.1949 1009.52C10.1949 1009.65 10.1461 1009.85 10.0864 1009.97C10.0268 1010.09 9.97797 1010.23 9.97797 1010.29C9.97797 1010.35 9.92917 1010.5 9.86952 1010.62C9.80988 1010.73 9.76107 1010.88 9.76107 1010.94C9.76107 1011 9.71227 1011.15 9.65262 1011.27C9.59297 1011.38 9.54417 1011.53 9.54417 1011.59C9.54417 1011.65 9.49537 1011.8 9.43572 1011.91C9.37607 1012.03 9.32727 1012.17 9.32727 1012.24C9.32727 1012.3 9.18086 1012.64 9.00192 1013C8.76333 1013.47 8.67657 1013.71 8.67657 1013.86C8.67657 1013.99 8.62776 1014.18 8.56811 1014.3C8.50847 1014.42 8.45966 1014.56 8.45966 1014.62C8.45966 1014.68 8.41086 1014.83 8.35121 1014.95C8.29156 1015.07 8.24276 1015.21 8.24276 1015.27C8.24276 1015.33 8.19396 1015.48 8.13431 1015.6C8.07466 1015.71 8.02586 1015.91 8.02586 1016.03C8.02586 1016.15 7.97706 1016.34 7.91741 1016.46C7.85776 1016.58 7.80896 1016.78 7.80896 1016.89C7.80896 1017.01 7.76016 1017.21 7.70051 1017.33C7.64086 1017.45 7.59206 1017.64 7.59206 1017.76C7.59206 1017.88 7.54325 1018.07 7.48361 1018.19C7.42396 1018.31 7.37516 1018.51 7.37516 1018.63C7.37516 1018.75 7.32635 1018.94 7.26671 1019.06C7.20706 1019.18 7.15825 1019.37 7.15825 1019.49C7.15825 1019.61 7.10945 1019.81 7.0498 1019.93C6.99016 1020.05 6.94135 1020.24 6.94135 1020.36C6.94135 1020.48 6.89255 1020.67 6.8329 1020.79C6.75699 1020.93 6.72445 1021.11 6.72445 1021.33C6.72445 1021.56 6.69192 1021.73 6.616 1021.87C6.55635 1021.99 6.50755 1022.19 6.50755 1022.31C6.50755 1022.43 6.45875 1022.63 6.39368 1022.75C6.30692 1022.93 6.29065 1023.03 6.31776 1023.25C6.38825 1023.84 6.30149 1024.91 6.16051 1025.17C6.09544 1025.3 6.07375 1025.4 6.10086 1025.52C6.14424 1025.71 6.14424 1025.78 6.08459 1026.83C6.05748 1027.34 6.01952 1027.63 5.9653 1027.72C5.82973 1027.95 5.77551 1028.68 5.83516 1029.6C5.86227 1030.03 5.85142 1030.12 5.75382 1030.31C5.58572 1030.64 5.5803 1032.38 5.7484 1032.7C5.88396 1032.97 5.88396 1033.3 5.7484 1033.57C5.59656 1033.86 5.60199 1034.36 5.75382 1034.66C5.87854 1034.9 5.87311 1035.25 5.74297 1035.55C5.68333 1035.71 5.68333 1035.76 5.74297 1035.91C5.78635 1036 5.83516 1036.26 5.85142 1036.48C5.88938 1036.97 5.97072 1037.05 6.36656 1037.02C6.58889 1036.99 6.65938 1036.96 6.77325 1036.82C6.84917 1036.72 7.02811 1036.53 7.17452 1036.38C7.31551 1036.24 7.42938 1036.1 7.42938 1036.07C7.42938 1036.05 7.54325 1035.91 7.67882 1035.76C7.81438 1035.61 7.96079 1035.41 8.00959 1035.33C8.0584 1035.23 8.16142 1035.08 8.24276 1034.97C8.3241 1034.87 8.43255 1034.7 8.48135 1034.61C8.53016 1034.51 8.71452 1034.29 8.89347 1034.11C9.07241 1033.93 9.26762 1033.69 9.32727 1033.57C9.38692 1033.45 9.58213 1033.2 9.76107 1033.03C9.97255 1032.81 10.1623 1032.54 10.3087 1032.26C10.4823 1031.92 10.6341 1031.72 11.0625 1031.29C11.3553 1031 11.6481 1030.66 11.7132 1030.54C11.7728 1030.42 12.0223 1030.12 12.2554 1029.89C12.5699 1029.57 12.7489 1029.34 12.9007 1029.04C13.02 1028.8 13.2152 1028.51 13.3399 1028.37C13.4592 1028.24 13.6111 1028.03 13.6707 1027.92C13.7304 1027.81 13.969 1027.53 14.2076 1027.29C14.4461 1027.05 14.6847 1026.76 14.7498 1026.64C14.8095 1026.52 15.0047 1026.28 15.1836 1026.1C15.3626 1025.92 15.5578 1025.68 15.6174 1025.57C15.6716 1025.46 15.8235 1025.26 15.9428 1025.12C16.0621 1024.99 16.2085 1024.79 16.2681 1024.69C16.3278 1024.59 16.4742 1024.39 16.5935 1024.26C16.7128 1024.12 16.8592 1023.94 16.908 1023.85C16.9568 1023.75 17.1086 1023.55 17.2442 1023.39C17.3797 1023.23 17.537 1023.02 17.5966 1022.91C17.6563 1022.81 17.8081 1022.65 17.9383 1022.56C18.063 1022.48 18.204 1022.34 18.2473 1022.26C18.2907 1022.18 18.4263 1022.01 18.5456 1021.87C18.6649 1021.74 18.8167 1021.54 18.8709 1021.44C18.9306 1021.34 19.0661 1021.15 19.1692 1021.04C19.2776 1020.92 19.424 1020.73 19.4999 1020.62C19.5704 1020.51 19.6789 1020.39 19.7385 1020.36C19.7982 1020.33 19.9121 1020.2 19.9826 1020.09C20.0585 1019.97 20.2157 1019.81 20.335 1019.74C20.4868 1019.64 20.6007 1019.5 20.7146 1019.28C20.8014 1019.1 20.9478 1018.91 21.0399 1018.84C21.1321 1018.78 21.2406 1018.66 21.284 1018.58C21.3273 1018.5 21.4629 1018.33 21.5822 1018.19C21.7015 1018.06 21.8479 1017.86 21.9076 1017.76C21.9618 1017.65 22.119 1017.44 22.2546 1017.29C22.5257 1016.99 22.5528 1016.87 22.4173 1016.61C22.3576 1016.49 22.3414 1016.38 22.3685 1016.17C22.439 1015.59 22.3522 1014.51 22.2166 1014.26C22.1461 1014.13 22.1245 1013.96 22.1245 1013.54C22.1245 1013.1 22.1028 1012.95 22.016 1012.78C21.913 1012.58 21.9076 1012.46 21.9076 1010.62C21.9076 1008.74 21.9021 1008.66 21.7937 1008.44C21.6852 1008.23 21.6852 1008.16 21.772 1007.79C21.7991 1007.69 21.7774 1007.6 21.6907 1007.48C21.5985 1007.35 21.5822 1007.27 21.6093 1007.16C21.631 1007.08 21.6635 1006.8 21.6744 1006.54C21.6961 1006.15 21.6798 1006.05 21.5876 1005.86C21.4846 1005.66 21.4738 1005.54 21.4738 1004.66C21.4738 1003.97 21.4521 1003.64 21.4087 1003.56C21.3707 1003.5 21.3328 1003.29 21.3219 1003.09C21.3165 1002.9 21.284 1002.34 21.2568 1001.85C21.1972 1000.82 21.1972 1000.81 21.2352 999.86C21.2568 999.243 21.2514 999.124 21.1647 998.967C21.0291 998.712 20.9423 997.635 21.0128 997.05C21.0399 996.828 21.0237 996.726 20.9369 996.552C20.8556 996.401 20.823 996.228 20.823 996C20.823 995.773 20.7905 995.6 20.7092 995.448C20.617 995.264 20.6007 995.167 20.6278 994.842C20.6821 994.214 20.6224 992.899 20.5357 992.763C20.4706 992.666 20.2808 992.687 20.0314 992.823Z" fill="white"/>
<path d="M74.7419 1011.55C74.4436 1011.72 74.0912 1011.97 73.7441 1012.25C73.5109 1012.44 73.3103 1012.56 73.229 1012.56C73.1531 1012.56 73.05 1012.62 72.9904 1012.68C72.5566 1013.2 72.2909 1013.43 72.1553 1013.43C72.0577 1013.43 71.933 1013.51 71.7703 1013.66C71.3528 1014.07 70.8539 1014.44 70.4689 1014.64C70.2195 1014.76 69.9321 1014.98 69.6284 1015.27C69.3736 1015.51 69.1024 1015.75 69.0211 1015.79C68.9452 1015.83 68.8259 1015.94 68.7608 1016.03C68.6361 1016.21 68.186 1016.46 68.0016 1016.46C67.942 1016.46 67.7847 1016.57 67.6546 1016.7C67.519 1016.84 67.3943 1016.95 67.3672 1016.95C67.3455 1016.95 67.1557 1017.11 66.9443 1017.31C66.7382 1017.5 66.4942 1017.69 66.402 1017.74C66.3152 1017.79 66.1526 1017.9 66.0495 1017.98C65.9465 1018.06 65.7242 1018.19 65.5615 1018.27C65.3988 1018.36 65.1657 1018.52 65.0464 1018.64C64.6017 1019.08 64.195 1019.38 64.0378 1019.38C63.9293 1019.38 63.8426 1019.44 63.7178 1019.6C63.6202 1019.72 63.4684 1019.86 63.3708 1019.91C63.2786 1019.96 63.0509 1020.13 62.8611 1020.29C62.6713 1020.44 62.4978 1020.57 62.4707 1020.57C62.449 1020.57 62.2483 1020.72 62.0369 1020.9C61.7983 1021.1 61.5976 1021.22 61.5163 1021.22C61.359 1021.22 61.1693 1021.4 61.1693 1021.55C61.1693 1021.7 60.9795 1021.87 60.8222 1021.87C60.7409 1021.87 60.5402 1022 60.3071 1022.18C59.9492 1022.48 59.6618 1022.68 59.2443 1022.93C59.1412 1022.99 58.8864 1023.2 58.6749 1023.39C58.458 1023.58 58.2194 1023.77 58.1435 1023.82C58.0621 1023.86 57.9103 1023.96 57.8073 1024.04C57.7043 1024.12 57.547 1024.22 57.4548 1024.27C57.3681 1024.32 57.1349 1024.5 56.9397 1024.69C56.7445 1024.87 56.5005 1025.07 56.3974 1025.12C56.2944 1025.18 56.0504 1025.37 55.8552 1025.55C55.6491 1025.75 55.3292 1025.98 55.0906 1026.1C54.4833 1026.4 54.4453 1026.47 54.4453 1027.18V1027.75L54.6622 1028.04C54.8737 1028.33 54.8791 1028.34 54.8791 1028.79C54.8791 1029.2 54.8954 1029.27 55.096 1029.67C55.2424 1029.96 55.3129 1030.17 55.3129 1030.32C55.3129 1030.44 55.3617 1030.63 55.4214 1030.75C55.481 1030.87 55.5298 1031.01 55.5298 1031.08C55.5298 1031.14 55.6274 1031.38 55.7467 1031.62C55.8931 1031.91 55.9636 1032.12 55.9636 1032.27C55.9636 1032.41 56.0341 1032.62 56.1805 1032.92C56.2998 1033.15 56.3974 1033.4 56.3974 1033.46C56.3974 1033.52 56.4462 1033.66 56.5059 1033.78C56.5655 1033.9 56.6143 1034.05 56.6143 1034.11C56.6143 1034.17 56.6631 1034.31 56.7228 1034.43C56.7824 1034.55 56.8312 1034.75 56.8312 1034.87C56.8312 1034.98 56.88 1035.18 56.9397 1035.3C56.9993 1035.42 57.0481 1035.56 57.0481 1035.62C57.0481 1035.68 57.0969 1035.83 57.1566 1035.95C57.2162 1036.07 57.265 1036.26 57.265 1036.38C57.265 1036.53 57.3355 1036.74 57.4819 1037.03C57.6012 1037.27 57.6988 1037.51 57.6988 1037.57C57.6988 1037.63 57.7964 1037.87 57.9157 1038.11C58.035 1038.35 58.1326 1038.59 58.1326 1038.65C58.1326 1038.72 58.1814 1038.86 58.2411 1038.98C58.3007 1039.1 58.3495 1039.24 58.3495 1039.3C58.3495 1039.36 58.3983 1039.51 58.458 1039.63C58.5176 1039.75 58.5664 1039.94 58.5664 1040.06C58.5664 1040.18 58.6152 1040.38 58.6749 1040.49C58.7345 1040.61 58.7833 1040.76 58.7833 1040.82C58.7833 1040.88 58.8321 1041.03 58.8918 1041.14C58.9514 1041.26 59.0002 1041.4 59.0002 1041.47C59.0002 1041.53 59.0978 1041.77 59.2171 1042.01C59.3364 1042.25 59.434 1042.49 59.434 1042.55C59.434 1042.62 59.4828 1042.76 59.5425 1042.88C59.6021 1043 59.6509 1043.19 59.6509 1043.31C59.6509 1043.43 59.6997 1043.62 59.7594 1043.74C59.819 1043.86 59.8678 1044.01 59.8678 1044.07C59.8678 1044.13 59.9167 1044.27 59.9763 1044.39C60.0359 1044.51 60.0847 1044.7 60.0847 1044.83C60.0847 1044.98 60.1661 1045.2 60.3559 1045.58C60.5457 1045.96 60.627 1046.19 60.627 1046.34C60.627 1046.49 60.7083 1046.72 60.8981 1047.1C61.05 1047.4 61.1693 1047.69 61.1693 1047.75C61.1693 1047.81 61.2181 1047.95 61.2777 1048.07C61.3374 1048.19 61.3862 1048.38 61.3862 1048.51C61.3862 1048.66 61.4729 1048.9 61.7115 1049.37C61.9501 1049.84 62.0369 1050.08 62.0369 1050.24C62.0369 1050.54 62.4924 1051.44 62.796 1051.73L63.0183 1051.94L63.8426 1051.93C64.2981 1051.93 64.7969 1051.93 64.9542 1051.93C65.8272 1051.93 68.6361 1051.93 68.8693 1051.93C69.0211 1051.93 69.4007 1051.93 69.726 1051.93C70.0459 1051.93 70.4797 1051.91 70.6966 1051.89C70.9515 1051.86 71.1467 1051.87 71.2769 1051.92C71.4233 1051.97 71.5155 1051.97 71.6564 1051.92C72.0577 1051.79 74.1779 1051.74 74.4382 1051.86C74.5955 1051.93 74.6388 1051.93 74.7907 1051.86C74.9533 1051.79 77.0844 1051.69 78.0333 1051.71C78.1689 1051.71 78.44 1051.71 78.6461 1051.71C79.069 1051.7 79.8228 1051.7 80.365 1051.71C80.5765 1051.71 81.0157 1051.71 81.3411 1051.71C81.6719 1051.71 82.1002 1051.71 82.3063 1051.71C82.5069 1051.71 82.7781 1051.71 82.9136 1051.7C83.0492 1051.7 83.4071 1051.71 83.7162 1051.73C84.215 1051.76 84.3126 1051.75 84.6 1051.65L84.92 1051.53L85.2453 1051.65C85.511 1051.74 85.5978 1051.75 85.7388 1051.71C85.8364 1051.67 86.0045 1051.65 86.1129 1051.65C86.2214 1051.65 86.3895 1051.62 86.4871 1051.59C86.6281 1051.54 86.7148 1051.55 86.9859 1051.65L87.3059 1051.77L87.6095 1051.65C87.8373 1051.56 88.0325 1051.54 88.4121 1051.54C89.0302 1051.54 89.4695 1051.36 89.5508 1051.08C89.5725 1050.99 89.643 1050.81 89.6972 1050.68C89.7514 1050.56 89.8002 1050.35 89.8002 1050.23C89.8002 1050.11 89.849 1049.92 89.9087 1049.81C89.9683 1049.69 90.0171 1049.54 90.0171 1049.48C90.0171 1049.42 90.0659 1049.27 90.1256 1049.16C90.1852 1049.04 90.234 1048.84 90.234 1048.71C90.234 1048.52 90.2774 1048.41 90.4509 1048.18C90.6245 1047.95 90.6678 1047.85 90.6678 1047.66C90.6678 1047.53 90.7166 1047.33 90.7763 1047.21C90.8359 1047.09 90.8847 1046.9 90.8847 1046.77C90.8847 1046.63 90.9552 1046.42 91.1016 1046.12C91.2209 1045.89 91.3185 1045.64 91.3185 1045.58C91.3185 1045.52 91.3674 1045.38 91.427 1045.26C91.4866 1045.14 91.5355 1044.94 91.5355 1044.83C91.5355 1044.71 91.5843 1044.51 91.6439 1044.39C91.7035 1044.27 91.7524 1044.08 91.7524 1043.96C91.7524 1043.84 91.8012 1043.65 91.8608 1043.53C91.9205 1043.41 91.9693 1043.21 91.9693 1043.09C91.9693 1042.97 92.0181 1042.78 92.0777 1042.66C92.1374 1042.54 92.1862 1042.34 92.1862 1042.21C92.1862 1042.02 92.2295 1041.92 92.4031 1041.69C92.5766 1041.45 92.62 1041.35 92.62 1041.16C92.62 1041.03 92.6688 1040.83 92.7284 1040.71C92.7881 1040.59 92.8369 1040.4 92.8369 1040.28C92.8369 1040.13 92.9074 1039.92 93.0538 1039.63C93.2544 1039.23 93.2707 1039.16 93.2707 1038.75C93.2707 1038.33 93.2815 1038.28 93.4333 1038.08C93.5418 1037.93 93.596 1037.8 93.596 1037.66C93.596 1037.55 93.6665 1037.32 93.7587 1037.14C93.8509 1036.96 93.9214 1036.76 93.9214 1036.69C93.9214 1036.62 93.9973 1036.46 94.0895 1036.34C94.2359 1036.14 94.2521 1036.08 94.2196 1035.88C94.1925 1035.7 94.2088 1035.59 94.2684 1035.47C94.3172 1035.38 94.3552 1035.21 94.3552 1035.08C94.3552 1034.96 94.404 1034.77 94.4636 1034.65C94.5233 1034.53 94.5721 1034.39 94.5721 1034.32C94.5721 1034.26 94.6697 1034.02 94.789 1033.78C94.9354 1033.49 95.0059 1033.28 95.0059 1033.13C95.0059 1033.01 95.0547 1032.82 95.1143 1032.7C95.174 1032.58 95.2228 1032.43 95.2228 1032.38C95.2228 1032.32 95.2716 1032.17 95.3312 1032.05C95.3909 1031.93 95.4397 1031.74 95.4397 1031.62C95.4397 1031.5 95.4885 1031.3 95.5481 1031.18C95.6078 1031.07 95.6566 1030.88 95.6566 1030.75C95.6566 1030.61 95.7271 1030.39 95.8735 1030.1C96.0578 1029.74 96.0904 1029.62 96.0904 1029.34C96.0904 1029.12 96.1283 1028.94 96.1988 1028.8C96.2585 1028.68 96.3073 1028.54 96.3073 1028.48C96.3073 1028.42 96.4049 1028.17 96.5242 1027.94L96.7411 1027.5V1026.84C96.7411 1026.03 96.714 1025.98 96.0958 1025.66C95.8572 1025.54 95.5373 1025.32 95.3312 1025.12C95.0818 1024.89 94.8052 1024.7 94.3823 1024.49C93.8021 1024.2 93.2978 1023.83 92.864 1023.4C92.7447 1023.28 92.5115 1023.12 92.3488 1023.04C92.1862 1022.96 91.915 1022.77 91.7524 1022.63C91.5897 1022.49 91.2209 1022.26 90.939 1022.12C90.6516 1021.98 90.3262 1021.77 90.2069 1021.65C89.849 1021.28 89.3014 1020.87 88.9869 1020.71C88.8242 1020.63 88.6019 1020.47 88.4934 1020.35C88.3633 1020.21 88.2494 1020.14 88.1572 1020.14C88.065 1020.14 87.8915 1020.04 87.6746 1019.85C87.4848 1019.69 87.1595 1019.47 86.9534 1019.36C86.5196 1019.13 86.1671 1018.9 85.7116 1018.53C85.5327 1018.39 85.1097 1018.13 84.7627 1017.95C84.2421 1017.68 84.1066 1017.59 83.9819 1017.39C83.8788 1017.24 83.7324 1017.12 83.5481 1017.02C83.3908 1016.95 83.1793 1016.79 83.0709 1016.67C82.957 1016.55 82.8214 1016.46 82.7564 1016.46C82.5232 1016.46 82.0135 1016.14 81.558 1015.7C81.3031 1015.46 81.0266 1015.22 80.9344 1015.18C80.8476 1015.13 80.685 1015.03 80.5819 1014.95C80.4789 1014.86 80.2349 1014.72 80.0397 1014.62C79.8499 1014.52 79.5462 1014.32 79.3619 1014.18C78.9064 1013.81 78.5593 1013.57 78.1147 1013.34C77.9086 1013.23 77.5995 1013.03 77.4369 1012.89C77.2742 1012.75 76.9814 1012.55 76.7862 1012.46C76.5909 1012.36 76.2981 1012.16 76.13 1012.02C75.604 1011.56 75.0455 1011.38 74.7419 1011.55Z" fill="white"/>
<path d="M121.413 1023.09C121.337 1023.13 121.185 1023.17 121.071 1023.17C120.957 1023.17 120.778 1023.21 120.664 1023.26C120.556 1023.31 120.323 1023.36 120.155 1023.39C119.927 1023.42 119.78 1023.49 119.591 1023.63C119.45 1023.73 119.276 1023.82 119.206 1023.82C119.135 1023.82 118.902 1023.91 118.691 1024.02C118.36 1024.18 118.273 1024.21 118.067 1024.17C117.866 1024.15 117.801 1024.16 117.655 1024.27C117.275 1024.56 116.646 1024.8 116.245 1024.8C116.137 1024.8 115.99 1024.86 115.86 1024.96C115.741 1025.05 115.589 1025.12 115.518 1025.12C115.448 1025.12 115.296 1025.17 115.177 1025.23C115.057 1025.29 114.916 1025.34 114.857 1025.34C114.803 1025.34 114.651 1025.39 114.521 1025.45C114.39 1025.5 114.201 1025.55 114.103 1025.55C114.005 1025.55 113.81 1025.6 113.669 1025.66C113.528 1025.71 113.344 1025.78 113.252 1025.8C113.138 1025.84 113.078 1025.9 113.046 1026.01C113.019 1026.11 112.85 1026.47 112.677 1026.84C112.449 1027.31 112.357 1027.57 112.357 1027.72C112.357 1027.84 112.308 1028.03 112.249 1028.15C112.189 1028.27 112.14 1028.42 112.14 1028.49C112.14 1028.56 112.053 1028.74 111.945 1028.88C111.744 1029.14 111.744 1029.15 111.847 1029.58C111.88 1029.71 111.853 1029.75 111.685 1029.91C111.484 1030.09 111.451 1030.21 111.538 1030.45C111.582 1030.56 111.565 1030.61 111.43 1030.78C111.316 1030.92 111.273 1031.04 111.273 1031.19C111.273 1031.31 111.224 1031.5 111.164 1031.62C111.104 1031.74 111.056 1031.92 111.056 1032.05C111.056 1032.2 110.985 1032.41 110.839 1032.7C110.66 1033.06 110.622 1033.18 110.622 1033.46C110.622 1033.73 110.584 1033.85 110.405 1034.21C110.259 1034.51 110.188 1034.72 110.188 1034.86C110.188 1034.99 110.139 1035.18 110.08 1035.3C110.02 1035.42 109.971 1035.61 109.971 1035.73C109.971 1035.85 109.922 1036.04 109.863 1036.16C109.803 1036.28 109.754 1036.43 109.754 1036.49C109.754 1036.55 109.705 1036.69 109.646 1036.81C109.586 1036.93 109.537 1037.13 109.537 1037.25C109.537 1037.36 109.489 1037.56 109.429 1037.68C109.358 1037.82 109.32 1038 109.32 1038.22C109.32 1038.51 109.288 1038.62 108.995 1039.19C108.702 1039.77 108.67 1039.88 108.67 1040.17C108.67 1040.39 108.632 1040.57 108.561 1040.71C108.502 1040.83 108.453 1041.03 108.453 1041.16C108.453 1041.35 108.409 1041.45 108.236 1041.68C108.117 1041.84 108.019 1042.03 108.019 1042.1C108.019 1042.17 107.97 1042.32 107.911 1042.44C107.851 1042.56 107.802 1042.76 107.802 1042.88C107.802 1042.99 107.753 1043.19 107.694 1043.31C107.634 1043.43 107.585 1043.62 107.585 1043.74C107.585 1043.89 107.515 1044.1 107.368 1044.39C107.222 1044.68 107.151 1044.89 107.151 1045.04C107.151 1045.17 107.103 1045.35 107.043 1045.47C106.962 1045.64 106.935 1045.79 106.935 1046.12C106.935 1046.52 106.918 1046.59 106.718 1046.99C106.571 1047.28 106.501 1047.49 106.501 1047.64C106.501 1047.76 106.452 1047.95 106.392 1048.07C106.333 1048.19 106.284 1048.34 106.284 1048.41C106.284 1048.48 106.186 1048.67 106.067 1048.83C105.948 1048.99 105.85 1049.18 105.85 1049.25C105.85 1049.32 105.812 1049.45 105.763 1049.54C105.709 1049.65 105.687 1049.77 105.709 1049.88C105.731 1049.97 105.758 1050.11 105.774 1050.19C105.801 1050.3 105.763 1050.39 105.611 1050.59C105.503 1050.74 105.416 1050.91 105.416 1050.98C105.416 1051.05 105.367 1051.2 105.308 1051.32C105.248 1051.44 105.199 1051.64 105.199 1051.77C105.199 1051.94 105.156 1052.06 105.031 1052.23C104.885 1052.43 104.869 1052.48 104.901 1052.69C104.928 1052.86 104.912 1052.98 104.852 1053.1C104.803 1053.19 104.765 1053.31 104.765 1053.38C104.765 1053.44 104.695 1053.63 104.603 1053.81C104.5 1054.01 104.44 1054.22 104.44 1054.35C104.44 1054.49 104.38 1054.69 104.277 1054.89C104.191 1055.07 104.115 1055.27 104.115 1055.33C104.115 1055.38 104.066 1055.53 104.006 1055.65C103.947 1055.77 103.898 1055.96 103.898 1056.08C103.898 1056.2 103.849 1056.4 103.789 1056.52C103.73 1056.64 103.681 1056.83 103.681 1056.95C103.681 1057.07 103.632 1057.26 103.573 1057.38C103.513 1057.5 103.464 1057.64 103.464 1057.71C103.464 1057.77 103.366 1058.01 103.247 1058.25C103.128 1058.49 103.03 1058.73 103.03 1058.79C103.03 1058.85 102.981 1059 102.922 1059.11C102.803 1059.35 102.775 1059.86 102.868 1060.04C102.9 1060.09 102.992 1060.18 103.079 1060.22C103.312 1060.34 104.63 1061.67 104.755 1061.91C104.89 1062.18 104.988 1062.26 105.4 1062.47C105.644 1062.58 105.78 1062.7 105.877 1062.85C105.953 1062.97 106.11 1063.13 106.23 1063.2C106.343 1063.27 106.468 1063.39 106.501 1063.45C106.533 1063.5 106.653 1063.61 106.766 1063.68C106.875 1063.75 107.515 1064.35 108.176 1065.01C108.843 1065.67 109.413 1066.21 109.44 1066.21C109.467 1066.21 109.597 1066.31 109.733 1066.45C110.004 1066.73 110.215 1066.76 110.616 1066.58C110.747 1066.53 110.893 1066.48 110.947 1066.48C111.001 1066.48 111.148 1066.43 111.278 1066.37C111.408 1066.31 111.603 1066.26 111.706 1066.26C111.809 1066.26 112.005 1066.21 112.135 1066.15C112.265 1066.09 112.411 1066.04 112.465 1066.04C112.52 1066.04 112.666 1065.99 112.796 1065.94C112.926 1065.88 113.111 1065.83 113.208 1065.83C113.306 1065.83 113.507 1065.78 113.658 1065.72C113.81 1065.66 114.005 1065.61 114.098 1065.61C114.184 1065.61 114.347 1065.57 114.461 1065.52C114.569 1065.47 114.803 1065.42 114.976 1065.39C115.204 1065.36 115.35 1065.3 115.513 1065.17C115.719 1065 115.773 1064.99 116.261 1064.96C116.755 1064.93 116.798 1064.92 117.02 1064.74C117.254 1064.56 117.275 1064.55 117.888 1064.53C118.474 1064.5 118.539 1064.48 118.902 1064.29C119.119 1064.19 119.347 1064.09 119.406 1064.09C119.471 1064.09 119.596 1064.06 119.688 1064.01C119.846 1063.93 120.155 1063.86 120.816 1063.78C120.979 1063.75 121.25 1063.67 121.413 1063.59C121.575 1063.51 121.787 1063.45 121.884 1063.45C121.982 1063.45 122.183 1063.4 122.335 1063.34C122.486 1063.28 122.687 1063.23 122.785 1063.23C122.882 1063.23 123.067 1063.18 123.197 1063.12C123.327 1063.06 123.473 1063.01 123.527 1063.01C123.582 1063.01 123.728 1062.96 123.858 1062.9C123.988 1062.84 124.173 1062.8 124.27 1062.8C124.368 1062.8 124.569 1062.75 124.72 1062.69C124.872 1062.63 125.073 1062.58 125.17 1062.58C125.268 1062.58 125.452 1062.53 125.583 1062.47C125.713 1062.41 125.859 1062.36 125.913 1062.36C125.968 1062.36 126.114 1062.31 126.244 1062.25C126.385 1062.19 126.602 1062.15 126.781 1062.15C126.96 1062.15 127.177 1062.1 127.318 1062.04C127.448 1061.98 127.594 1061.93 127.649 1061.93C127.703 1061.93 127.952 1061.83 128.196 1061.71C128.457 1061.59 128.728 1061.5 128.836 1061.5C128.945 1061.5 129.14 1061.45 129.27 1061.39C129.4 1061.33 129.552 1061.28 129.606 1061.28C129.666 1061.28 129.807 1061.23 129.926 1061.17C130.045 1061.11 130.186 1061.06 130.246 1061.06C130.306 1061.06 130.463 1061.01 130.588 1060.96C130.718 1060.91 130.891 1060.84 130.983 1060.81C131.097 1060.78 131.157 1060.72 131.19 1060.6C131.217 1060.51 131.287 1060.34 131.341 1060.21C131.396 1060.08 131.444 1059.93 131.444 1059.87C131.444 1059.81 131.493 1059.67 131.553 1059.55C131.612 1059.43 131.661 1059.23 131.661 1059.11C131.661 1059 131.71 1058.8 131.77 1058.68C131.829 1058.56 131.878 1058.42 131.878 1058.36C131.878 1058.3 131.976 1058.05 132.095 1057.82C132.307 1057.4 132.312 1057.37 132.312 1056.82V1056.27L132.529 1055.97C132.702 1055.74 132.746 1055.64 132.746 1055.45C132.746 1055.32 132.795 1055.12 132.854 1055C132.914 1054.88 132.963 1054.68 132.963 1054.55C132.963 1054.36 133.006 1054.26 133.18 1054.03C133.299 1053.87 133.396 1053.68 133.396 1053.61C133.396 1053.54 133.445 1053.39 133.505 1053.27C133.581 1053.13 133.613 1052.95 133.613 1052.73C133.613 1052.51 133.646 1052.33 133.722 1052.19C133.781 1052.07 133.83 1051.93 133.83 1051.86C133.83 1051.8 133.928 1051.56 134.047 1051.32C134.248 1050.92 134.264 1050.85 134.264 1050.45C134.264 1050.05 134.28 1049.98 134.481 1049.59C134.627 1049.3 134.698 1049.08 134.698 1048.94C134.698 1048.81 134.747 1048.62 134.806 1048.5C134.866 1048.39 134.915 1048.2 134.915 1048.07C134.915 1047.93 134.985 1047.71 135.132 1047.42C135.316 1047.06 135.349 1046.94 135.349 1046.66C135.349 1046.44 135.387 1046.26 135.457 1046.12C135.517 1046 135.565 1045.86 135.565 1045.8C135.565 1045.74 135.663 1045.5 135.782 1045.26C135.967 1044.89 135.999 1044.78 135.999 1044.5C135.999 1044.28 136.037 1044.1 136.108 1043.96C136.167 1043.84 136.216 1043.69 136.216 1043.63C136.216 1043.57 136.314 1043.43 136.433 1043.31L136.65 1043.1V1042.66C136.65 1042.26 136.666 1042.19 136.867 1041.79C137.116 1041.3 137.143 1041.03 136.975 1040.71C136.916 1040.59 136.867 1040.44 136.867 1040.39C136.867 1040.2 136.612 1039.75 136.433 1039.63C136.341 1039.56 136.232 1039.44 136.184 1039.35C136.14 1039.26 135.761 1038.85 135.349 1038.44C134.936 1038.03 134.546 1037.59 134.481 1037.46C134.351 1037.21 133.966 1036.81 133.657 1036.62C133.543 1036.55 133.418 1036.42 133.375 1036.34C133.331 1036.26 133.19 1036.08 133.071 1035.95C132.952 1035.81 132.805 1035.62 132.746 1035.51C132.686 1035.41 132.54 1035.22 132.42 1035.08C132.301 1034.95 132.149 1034.74 132.09 1034.63C132.03 1034.52 131.444 1033.89 130.794 1033.24C130.143 1032.59 129.557 1031.96 129.498 1031.85C129.438 1031.74 129.286 1031.53 129.167 1031.4C129.048 1031.26 128.896 1031.06 128.836 1030.94C128.706 1030.7 128.099 1030.09 127.8 1029.91C127.67 1029.82 127.584 1029.72 127.567 1029.62C127.513 1029.37 127.41 1029.22 127.177 1029.05C127.047 1028.96 126.879 1028.78 126.803 1028.67C126.721 1028.55 126.396 1028.19 126.076 1027.88C125.604 1027.42 125.452 1027.23 125.257 1026.85C125.073 1026.5 124.964 1026.36 124.791 1026.24C124.617 1026.13 124.547 1026.04 124.504 1025.87C124.46 1025.72 124.39 1025.62 124.243 1025.53C123.956 1025.35 123.403 1024.81 123.24 1024.54C123.159 1024.42 123.023 1024.28 122.942 1024.23C122.774 1024.15 122.335 1023.69 122.335 1023.6C122.335 1023.57 122.221 1023.43 122.085 1023.28C121.814 1022.99 121.662 1022.95 121.413 1023.09Z" fill="white"/>
<path d="M28.9968 1025.13C28.9263 1025.22 28.769 1025.4 28.6497 1025.52C28.525 1025.65 28.3461 1025.9 28.2539 1026.08C28.1617 1026.27 27.9448 1026.56 27.7604 1026.75C27.5815 1026.92 27.3863 1027.17 27.3212 1027.3C27.2616 1027.42 27.0935 1027.63 26.9471 1027.77C26.8061 1027.9 26.6271 1028.11 26.5458 1028.23C26.4699 1028.35 26.3018 1028.53 26.1716 1028.62C25.9764 1028.76 25.9439 1028.81 25.9276 1029.01C25.9113 1029.21 25.8625 1029.28 25.483 1029.66C25.2498 1029.9 25.0166 1030.17 24.9678 1030.26C24.9244 1030.35 24.7835 1030.49 24.6642 1030.57C24.5449 1030.64 24.4039 1030.78 24.3551 1030.88C24.2683 1031.03 24.0894 1031.23 23.764 1031.51C23.6935 1031.57 23.6393 1031.67 23.6393 1031.74C23.6393 1031.81 23.558 1031.98 23.4604 1032.11C23.3573 1032.24 23.238 1032.43 23.1838 1032.52C23.135 1032.62 22.9506 1032.84 22.7771 1033.02C22.6036 1033.2 22.403 1033.45 22.3325 1033.57C22.262 1033.7 22.0993 1033.87 21.9746 1033.96C21.8011 1034.07 21.7306 1034.17 21.6872 1034.32C21.6438 1034.48 21.5733 1034.57 21.3998 1034.69C21.1504 1034.85 20.825 1035.38 20.8196 1035.63C20.8196 1035.8 20.6461 1036.03 20.4346 1036.14C20.3424 1036.19 20.2285 1036.29 20.1797 1036.38C20.1309 1036.46 19.9791 1036.66 19.8435 1036.81C19.708 1036.97 19.5507 1037.19 19.4911 1037.29C19.4314 1037.4 19.285 1037.55 19.1711 1037.63C18.9325 1037.79 18.6235 1038.2 18.3523 1038.72C18.2222 1038.97 18.0975 1039.12 17.9348 1039.23C17.8101 1039.32 17.6528 1039.48 17.5932 1039.58C17.5335 1039.69 17.3763 1039.9 17.2407 1040.06C17.1051 1040.22 16.9587 1040.41 16.9099 1040.49C16.8611 1040.57 16.7581 1040.68 16.6768 1040.73C16.6009 1040.78 16.4653 1040.97 16.3731 1041.14C16.2809 1041.32 16.1508 1041.51 16.0749 1041.56C15.8363 1041.71 15.2398 1042.64 15.2344 1042.87C15.2344 1042.93 15.3103 1043.14 15.4079 1043.33C15.5814 1043.67 15.6411 1043.87 15.7224 1044.39C15.8254 1045.07 15.961 1045.41 16.2755 1045.82C16.4219 1046 16.4328 1046.04 16.4002 1046.28C16.3677 1046.52 16.384 1046.58 16.6388 1047.09C16.7906 1047.39 16.9154 1047.69 16.9154 1047.75C16.9154 1047.81 16.9642 1047.95 17.0238 1048.07C17.0835 1048.19 17.1323 1048.34 17.1323 1048.4C17.1323 1048.46 17.1811 1048.6 17.2407 1048.72C17.3004 1048.84 17.3492 1049.04 17.3492 1049.16C17.3492 1049.27 17.398 1049.47 17.4576 1049.59C17.5173 1049.71 17.5661 1049.91 17.5661 1050.04C17.5661 1050.23 17.6094 1050.33 17.783 1050.56C17.9023 1050.72 17.9999 1050.91 17.9999 1050.98C17.9999 1051.05 18.0487 1051.2 18.1083 1051.32C18.168 1051.44 18.2168 1051.63 18.2168 1051.75C18.2168 1051.87 18.2656 1052.07 18.3252 1052.19C18.3849 1052.31 18.4337 1052.45 18.4337 1052.51C18.4337 1052.57 18.5313 1052.81 18.6506 1053.05C18.797 1053.35 18.8675 1053.56 18.8675 1053.7C18.8675 1053.83 18.9163 1054.02 18.9759 1054.14C19.0356 1054.25 19.0844 1054.4 19.0844 1054.46C19.0844 1054.52 19.182 1054.76 19.3013 1055C19.4477 1055.29 19.5182 1055.51 19.5182 1055.65C19.5182 1055.8 19.5887 1056.01 19.7351 1056.3C19.8544 1056.54 19.952 1056.78 19.952 1056.84C19.952 1056.91 20.0008 1057.05 20.0604 1057.17C20.1201 1057.29 20.1689 1057.48 20.1689 1057.6C20.1689 1057.75 20.2394 1057.96 20.3858 1058.25C20.5647 1058.61 20.6027 1058.73 20.6027 1059.01C20.6027 1059.3 20.6406 1059.4 20.928 1059.98C21.2209 1060.56 21.2534 1060.66 21.2534 1060.96C21.2534 1061.32 21.3944 1061.66 21.7197 1062.09C21.8228 1062.22 21.9041 1062.38 21.9041 1062.45C21.9041 1062.64 22.0885 1062.8 22.3108 1062.8C22.4138 1062.8 22.6199 1062.85 22.7717 1062.9C22.9235 1062.96 23.1187 1063.01 23.2055 1063.01C23.2923 1063.01 23.4875 1063.06 23.6393 1063.12C23.7911 1063.18 23.9863 1063.23 24.0731 1063.23C24.1599 1063.23 24.3551 1063.28 24.5069 1063.34C24.6587 1063.4 24.8594 1063.45 24.957 1063.45C25.0546 1063.45 25.239 1063.49 25.3691 1063.55C25.4992 1063.61 25.6456 1063.66 25.6999 1063.66C25.7541 1063.66 25.9005 1063.71 26.0306 1063.77C26.1716 1063.83 26.3885 1063.88 26.5512 1063.88C26.7085 1063.88 26.9579 1063.93 27.1097 1063.99C27.2616 1064.05 27.4622 1064.1 27.5598 1064.1C27.6574 1064.1 27.8418 1064.14 27.9719 1064.2C28.1021 1064.26 28.2485 1064.31 28.3027 1064.31C28.3569 1064.31 28.5033 1064.36 28.6335 1064.42C28.7636 1064.48 28.948 1064.53 29.0456 1064.53C29.1432 1064.53 29.3438 1064.58 29.4956 1064.64C29.6475 1064.7 29.8915 1064.75 30.0379 1064.75C30.1843 1064.75 30.4283 1064.79 30.5802 1064.85C30.732 1064.91 30.976 1064.96 31.1224 1064.96C31.2688 1064.96 31.5128 1065.01 31.6647 1065.07C31.8165 1065.13 32.0171 1065.18 32.1147 1065.18C32.2123 1065.18 32.3967 1065.23 32.5268 1065.29C32.657 1065.35 32.8034 1065.39 32.8576 1065.39C32.9118 1065.39 33.0582 1065.44 33.1884 1065.5C33.3728 1065.58 33.5463 1065.61 33.9313 1065.61C34.2675 1065.61 34.5006 1065.64 34.6362 1065.7C34.7447 1065.75 34.9778 1065.8 35.1513 1065.83C35.3737 1065.86 35.5255 1065.92 35.6828 1066.05C35.8725 1066.2 35.9647 1066.23 36.3172 1066.26C36.5504 1066.28 36.8269 1066.34 36.9354 1066.39C37.0492 1066.44 37.2661 1066.48 37.4234 1066.48C37.6294 1066.48 37.8084 1066.53 38.0632 1066.65C38.329 1066.77 38.4645 1066.8 38.6055 1066.78C38.7899 1066.75 39.2345 1066.8 39.9069 1066.91C40.0696 1066.93 40.3895 1067.04 40.6118 1067.15C40.9155 1067.29 41.0836 1067.34 41.3005 1067.34C41.4578 1067.34 41.7072 1067.39 41.859 1067.45C42.0109 1067.51 42.2061 1067.56 42.2928 1067.56C42.3796 1067.56 42.5748 1067.61 42.7266 1067.67C42.8785 1067.73 43.0737 1067.78 43.1604 1067.78C43.2472 1067.78 43.4478 1067.83 43.5997 1067.88C43.7732 1067.96 43.9413 1067.99 44.0335 1067.97C44.1799 1067.93 44.6787 1067.46 44.6787 1067.35C44.6787 1067.32 44.8252 1067.12 45.0041 1066.91C45.2047 1066.67 45.3294 1066.47 45.3294 1066.39C45.3294 1066.3 45.4162 1066.17 45.5735 1066.02C45.709 1065.89 45.8175 1065.76 45.8175 1065.73C45.8175 1065.7 45.9747 1065.51 46.1699 1065.31C46.3652 1065.12 46.5658 1064.88 46.6146 1064.78C46.658 1064.69 46.7664 1064.52 46.8478 1064.42C46.9291 1064.32 47.0321 1064.16 47.0809 1064.07C47.1297 1063.98 47.2707 1063.8 47.39 1063.66C47.5093 1063.53 47.6611 1063.33 47.7154 1063.22C47.775 1063.11 47.9702 1062.87 48.1492 1062.69C48.3335 1062.5 48.5504 1062.21 48.6426 1062.02C48.7348 1061.84 48.9083 1061.6 49.0222 1061.49C49.1415 1061.38 49.2337 1061.24 49.2337 1061.18C49.2337 1061.11 49.2825 1060.97 49.3421 1060.85C49.4018 1060.73 49.4506 1060.58 49.4506 1060.52C49.4506 1060.46 49.4018 1060.32 49.3421 1060.2C49.2825 1060.08 49.2337 1059.89 49.2337 1059.77C49.2337 1059.61 49.1469 1059.37 48.9083 1058.9C48.6697 1058.43 48.583 1058.19 48.583 1058.03C48.583 1057.89 48.5125 1057.68 48.3661 1057.38C48.2468 1057.15 48.1492 1056.9 48.1492 1056.84C48.1492 1056.78 48.1004 1056.64 48.0407 1056.52C47.9811 1056.4 47.9323 1056.2 47.9323 1056.08C47.9323 1055.97 47.8835 1055.77 47.8238 1055.65C47.7642 1055.53 47.7154 1055.34 47.7154 1055.22C47.7154 1055.1 47.6666 1054.9 47.6069 1054.79C47.5473 1054.67 47.4985 1054.53 47.4985 1054.46C47.4985 1054.4 47.4009 1054.16 47.2816 1053.92C47.1352 1053.63 47.0647 1053.42 47.0647 1053.27C47.0647 1053.12 46.9942 1052.91 46.8478 1052.62C46.7285 1052.38 46.6309 1052.14 46.6309 1052.08C46.6309 1052.01 46.5821 1051.87 46.5224 1051.75C46.4628 1051.63 46.414 1051.43 46.414 1051.3C46.414 1051.12 46.3706 1051.01 46.1971 1050.78C46.0235 1050.55 45.9802 1050.44 45.9802 1050.25C45.9802 1050.12 45.9313 1049.92 45.8717 1049.81C45.8121 1049.69 45.7632 1049.55 45.7632 1049.48C45.7632 1049.42 45.6656 1049.18 45.5463 1048.94C45.3999 1048.65 45.3294 1048.44 45.3294 1048.29C45.3294 1048.16 45.2806 1047.98 45.221 1047.86C45.1613 1047.74 45.1125 1047.59 45.1125 1047.53C45.1125 1047.47 45.0637 1047.33 45.0041 1047.21C44.9444 1047.09 44.8956 1046.89 44.8956 1046.77C44.8956 1046.65 44.8468 1046.46 44.7872 1046.34C44.7275 1046.22 44.6787 1046.02 44.6787 1045.89C44.6787 1045.67 44.6462 1045.6 44.3534 1045.26C44.0606 1044.91 44.028 1044.84 44.028 1044.63C44.028 1044.49 43.9792 1044.29 43.9196 1044.18C43.8599 1044.06 43.8111 1043.86 43.8111 1043.73C43.8111 1043.54 43.7678 1043.43 43.5942 1043.2C43.3936 1042.94 43.3773 1042.88 43.3773 1042.57C43.3773 1042.26 43.3448 1042.16 43.1062 1041.69C42.9164 1041.31 42.8351 1041.08 42.8351 1040.93C42.8351 1040.79 42.7754 1040.59 42.6724 1040.39C42.5856 1040.21 42.5097 1040.01 42.5097 1039.95C42.5097 1039.89 42.4609 1039.75 42.4013 1039.63C42.3416 1039.51 42.2928 1039.36 42.2928 1039.3C42.2928 1039.24 42.244 1039.1 42.1844 1038.98C42.1247 1038.86 42.0759 1038.67 42.0759 1038.55C42.0759 1038.4 42.0054 1038.19 41.859 1037.9C41.7126 1037.6 41.6421 1037.39 41.6421 1037.25C41.6421 1037.09 41.5554 1036.85 41.3168 1036.38C41.024 1035.8 40.9914 1035.7 40.9914 1035.41C40.9914 1035.18 40.9535 1035.01 40.883 1034.86C40.8233 1034.75 40.7745 1034.59 40.7745 1034.52C40.7745 1034.45 40.6769 1034.26 40.5576 1034.11C40.357 1033.84 40.3407 1033.79 40.3407 1033.47C40.3407 1033.18 40.3082 1033.07 40.1238 1032.7C39.9394 1032.33 39.9069 1032.22 39.9069 1031.93C39.9069 1031.61 39.8906 1031.56 39.69 1031.29C39.5111 1031.05 39.4731 1030.96 39.4731 1030.75C39.4731 1030.56 39.4352 1030.45 39.305 1030.27C39.1586 1030.07 39.1423 1030.03 39.1749 1029.81C39.2074 1029.59 39.1966 1029.54 39.0176 1029.31C38.8604 1029.11 38.8224 1029.01 38.8224 1028.8C38.8224 1028.61 38.7844 1028.5 38.6597 1028.34C38.5513 1028.2 38.4971 1028.06 38.4971 1027.93C38.4971 1027.66 38.3506 1027.55 37.9548 1027.5C37.7108 1027.47 37.5806 1027.42 37.4234 1027.29C37.0763 1027.02 36.6642 1026.85 36.328 1026.85C36.1491 1026.85 35.9322 1026.81 35.7912 1026.75C35.6611 1026.69 35.5147 1026.64 35.4604 1026.64C35.4062 1026.64 35.1568 1026.54 34.9128 1026.42C34.6633 1026.3 34.3813 1026.2 34.2837 1026.2C34.1861 1026.2 33.9855 1026.16 33.8337 1026.1C33.6818 1026.04 33.4812 1025.99 33.3836 1025.99C33.286 1025.99 33.004 1025.89 32.7492 1025.77C32.4835 1025.65 32.2069 1025.55 32.093 1025.55C31.9683 1025.55 31.6809 1025.45 31.2905 1025.26C30.6506 1024.94 30.5259 1024.92 30.309 1025.04C30.2331 1025.08 30.065 1025.12 29.9294 1025.12C29.7939 1025.12 29.6258 1025.08 29.5499 1025.04C29.3221 1024.91 29.1378 1024.94 28.9968 1025.13Z" fill="white"/>
<path d="M85.4316 1066.37C85.193 1066.47 85.09 1066.48 84.5911 1066.45C83.935 1066.41 84.2061 1066.41 79.8193 1066.48C77.954 1066.5 76.3218 1066.53 76.1862 1066.53C75.0149 1066.51 74.1094 1066.54 73.8383 1066.61C73.7352 1066.64 73.6159 1066.62 73.4749 1066.56C73.258 1066.46 73.1442 1066.47 72.8405 1066.59C72.6995 1066.65 72.629 1066.65 72.4447 1066.59C72.2549 1066.52 72.1952 1066.52 72.0488 1066.59C71.9512 1066.63 71.756 1066.66 71.6042 1066.66C70.4437 1066.62 59.1269 1066.73 59.0076 1066.77C58.9317 1066.8 58.7961 1066.79 58.6497 1066.75C58.4437 1066.69 58.384 1066.69 58.178 1066.79C58.0478 1066.85 57.8743 1066.91 57.793 1066.93C57.7116 1066.95 57.6303 1067.02 57.6086 1067.09C57.5869 1067.15 57.5002 1067.29 57.4188 1067.39C57.3321 1067.48 57.2616 1067.62 57.2616 1067.7C57.2616 1067.77 57.1477 1067.96 56.9687 1068.17C56.8115 1068.36 56.638 1068.58 56.5892 1068.68C56.5404 1068.77 56.2963 1069.07 56.0415 1069.33C55.7866 1069.59 55.5643 1069.87 55.548 1069.94C55.5318 1070.02 55.5101 1070.13 55.4992 1070.19C55.483 1070.25 55.3149 1070.46 55.1197 1070.67C54.9244 1070.87 54.713 1071.12 54.6587 1071.24C54.5991 1071.34 54.4635 1071.55 54.3605 1071.7C54.2575 1071.85 54.0948 1072.09 53.9972 1072.24C53.8996 1072.39 53.7315 1072.59 53.6176 1072.7C53.1892 1073.12 52.788 1073.78 52.8313 1074C52.9344 1074.49 52.9778 1074.61 53.1242 1074.8C53.2163 1074.91 53.379 1075.17 53.4821 1075.38C53.5905 1075.59 53.7749 1075.87 53.8996 1076C54.0189 1076.14 54.1707 1076.34 54.2249 1076.45C54.2846 1076.56 54.4798 1076.8 54.6587 1076.98C54.9082 1077.23 55.06 1077.46 55.3094 1077.96C55.5914 1078.51 55.6999 1078.67 56.0686 1079.04C56.3018 1079.27 56.5404 1079.54 56.5892 1079.64C56.638 1079.74 56.7464 1079.91 56.8278 1080.01C56.9091 1080.11 57.0663 1080.38 57.1748 1080.59C57.3158 1080.88 57.4947 1081.11 57.8038 1081.42C58.1183 1081.73 58.2973 1081.96 58.4491 1082.27C58.5684 1082.5 58.7636 1082.8 58.8883 1082.93C59.013 1083.07 59.1974 1083.34 59.3059 1083.56C59.4089 1083.76 59.6312 1084.09 59.7885 1084.28C59.9945 1084.52 60.0813 1084.67 60.0813 1084.77C60.0813 1084.88 60.168 1085.03 60.3741 1085.27C60.5313 1085.46 60.7049 1085.68 60.7483 1085.78C60.7971 1085.86 60.938 1086.05 61.0573 1086.18C61.1766 1086.32 61.3176 1086.5 61.3664 1086.59C61.4152 1086.67 61.5183 1086.84 61.5996 1086.94C61.6809 1087.04 61.784 1087.2 61.8328 1087.29C61.8816 1087.38 62.0225 1087.56 62.1418 1087.7C62.2666 1087.83 62.4401 1088.09 62.5268 1088.27C62.619 1088.44 62.7925 1088.68 62.9064 1088.78C63.042 1088.91 63.1179 1089.03 63.1179 1089.12C63.1179 1089.26 63.568 1089.86 63.9747 1090.27C64.094 1090.39 64.3054 1090.71 64.441 1090.98C64.5928 1091.29 64.7447 1091.52 64.8477 1091.59C64.9507 1091.66 65.0321 1091.79 65.07 1091.92C65.1134 1092.08 65.1839 1092.17 65.352 1092.28C65.5852 1092.44 65.6936 1092.59 65.7478 1092.85C65.7749 1092.99 66.0515 1093.22 66.4961 1093.48C66.6371 1093.56 67.0275 1093.54 67.2824 1093.43C67.4288 1093.37 67.483 1093.37 67.6349 1093.43C67.7596 1093.49 67.9982 1093.51 68.5296 1093.51C69.3538 1093.49 69.3755 1093.49 71.0511 1093.51C72.0542 1093.52 72.3471 1093.5 72.4826 1093.43C72.6399 1093.37 72.6833 1093.36 72.8351 1093.43C72.9327 1093.48 73.1387 1093.51 73.2852 1093.51C74.2395 1093.48 74.7221 1093.48 74.9228 1093.52C75.1017 1093.55 75.2264 1093.53 75.4813 1093.43C75.7524 1093.33 75.8609 1093.32 76.1428 1093.35C76.3326 1093.38 76.5929 1093.39 76.7285 1093.38C76.9399 1093.37 77.3249 1093.37 78.4094 1093.38C78.5613 1093.38 78.8541 1093.38 79.0602 1093.38C79.2716 1093.38 79.5644 1093.38 79.7109 1093.38C79.8627 1093.38 80.1447 1093.38 80.3507 1093.38C80.5513 1093.38 81.0665 1093.38 81.5003 1093.38C81.9341 1093.38 83.3114 1093.36 84.564 1093.34L86.8415 1093.3L87.1126 1093.16C87.4488 1092.98 87.5139 1092.9 87.7525 1092.43C87.8609 1092.22 88.0453 1091.95 88.17 1091.81C88.2947 1091.68 88.5387 1091.29 88.7123 1090.94C88.8858 1090.6 89.1298 1090.21 89.2545 1090.08C89.3738 1089.94 89.5148 1089.76 89.5636 1089.67C89.6124 1089.58 89.7154 1089.42 89.7968 1089.32C89.8781 1089.22 90.0245 1088.97 90.1221 1088.78C90.2197 1088.58 90.4312 1088.28 90.5885 1088.09C90.7999 1087.84 90.8813 1087.7 90.8813 1087.58C90.8813 1087.42 90.9518 1087.33 91.4127 1086.94C91.4778 1086.88 91.532 1086.78 91.532 1086.7C91.532 1086.62 91.6459 1086.44 91.8248 1086.22C91.9821 1086.04 92.2423 1085.63 92.3996 1085.32C92.5568 1085 92.8171 1084.6 92.9744 1084.41C93.1533 1084.19 93.2672 1084.01 93.2672 1083.93C93.2672 1083.73 93.5546 1083.19 93.7932 1082.96C94.2161 1082.52 94.3517 1082.33 94.3517 1082.18C94.3517 1082.09 94.4276 1081.93 94.5306 1081.79C94.6337 1081.66 94.753 1081.48 94.8018 1081.39C94.8506 1081.3 94.9916 1081.12 95.1109 1080.98C95.3657 1080.7 95.6531 1080.18 95.6531 1079.99C95.6531 1079.88 95.87 1079.57 96.4665 1078.87C96.5587 1078.75 96.6292 1078.61 96.6292 1078.53C96.6292 1078.32 96.7593 1078.09 96.9545 1077.95C97.0467 1077.89 97.1985 1077.68 97.2907 1077.5C97.3829 1077.32 97.5239 1077.08 97.6052 1076.98C97.6866 1076.88 97.8275 1076.64 97.9197 1076.45C98.0119 1076.28 98.1637 1076.07 98.2559 1076C98.3481 1075.94 98.4566 1075.82 98.4999 1075.74C98.5433 1075.66 98.6789 1075.49 98.7982 1075.36C99.053 1075.07 99.3404 1074.55 99.3404 1074.36C99.3404 1074.29 99.4109 1074.14 99.5031 1074.02C99.5899 1073.91 99.6658 1073.77 99.6658 1073.71C99.6658 1073.55 99.2482 1072.79 98.9934 1072.51C98.8578 1072.36 98.744 1072.22 98.744 1072.2C98.744 1072.17 98.6301 1072.04 98.4891 1071.9C98.2451 1071.65 98.0011 1071.33 97.7679 1070.93C97.7082 1070.84 97.5673 1070.69 97.448 1070.62C97.2094 1070.47 96.9545 1070.05 96.9545 1069.8C96.9545 1069.65 96.7213 1069.4 96.4068 1069.21C96.3092 1069.15 96.1682 1068.99 96.0923 1068.87C96.0218 1068.74 95.8212 1068.49 95.6477 1068.31C95.4687 1068.13 95.279 1067.9 95.2193 1067.79C95.1597 1067.68 95.0241 1067.46 94.9211 1067.32C94.818 1067.17 94.6554 1066.93 94.5578 1066.78C94.4602 1066.63 94.3246 1066.46 94.2595 1066.39L94.1402 1066.26L89.9215 1066.27C85.8112 1066.27 85.6973 1066.27 85.4316 1066.37Z" fill="white"/>
<path d="M134.293 1070.64C134.173 1070.74 134.022 1070.81 133.957 1070.81C133.891 1070.81 133.734 1070.86 133.604 1070.92C133.463 1070.97 133.246 1071.02 133.067 1071.02C132.888 1071.02 132.671 1071.07 132.53 1071.13C132.4 1071.19 132.248 1071.24 132.194 1071.24C132.135 1071.24 131.912 1071.33 131.695 1071.44C131.354 1071.61 131.24 1071.64 130.79 1071.67C130.296 1071.7 130.258 1071.72 130.009 1071.91C129.852 1072.02 129.684 1072.11 129.597 1072.11C129.51 1072.11 129.342 1072.19 129.196 1072.3C128.99 1072.46 128.908 1072.49 128.778 1072.46C128.691 1072.45 128.55 1072.41 128.464 1072.4C128.371 1072.38 128.247 1072.4 128.144 1072.45C128.051 1072.5 127.927 1072.54 127.872 1072.54C127.813 1072.54 127.661 1072.59 127.531 1072.65C127.401 1072.71 127.2 1072.76 127.081 1072.76C126.913 1072.76 126.842 1072.79 126.696 1072.95C126.533 1073.13 126.495 1073.14 126.305 1073.11C126.083 1073.08 125.6 1073.17 125.324 1073.32C125.232 1073.37 125.107 1073.41 125.053 1073.41C124.993 1073.41 124.841 1073.45 124.711 1073.51C124.57 1073.57 124.353 1073.62 124.191 1073.62C124.033 1073.62 123.784 1073.67 123.632 1073.73C123.48 1073.79 123.28 1073.84 123.182 1073.84C123.084 1073.84 122.802 1073.94 122.548 1074.05C122.282 1074.18 122.005 1074.27 121.891 1074.27C121.767 1074.27 121.49 1074.37 121.138 1074.55C120.628 1074.8 120.552 1074.82 120.319 1074.79C120.135 1074.76 120.015 1074.77 119.901 1074.83C119.809 1074.88 119.641 1074.92 119.522 1074.92C119.392 1074.92 119.153 1075 118.866 1075.14C118.622 1075.26 118.372 1075.35 118.313 1075.35C118.253 1075.35 118.128 1075.39 118.036 1075.44C117.922 1075.5 117.803 1075.52 117.618 1075.49C117.385 1075.46 117.309 1075.48 116.8 1075.73C116.247 1076 116.236 1076 115.721 1076C115.227 1076 115.173 1076.01 114.739 1076.22C114.387 1076.38 114.213 1076.44 113.996 1076.44C113.839 1076.44 113.584 1076.49 113.427 1076.55C113.194 1076.64 113.107 1076.65 112.933 1076.61C112.744 1076.56 112.711 1076.57 112.548 1076.71C112.277 1076.95 111.93 1077.09 111.594 1077.09C111.415 1077.09 111.198 1077.13 111.057 1077.19C110.927 1077.25 110.775 1077.3 110.721 1077.3C110.661 1077.3 110.52 1077.35 110.401 1077.41C110.282 1077.47 110.125 1077.52 110.043 1077.52C109.853 1077.52 109.533 1077.84 109.533 1078.03C109.533 1078.23 109.289 1078.69 109.127 1078.8C108.932 1078.92 108.644 1079.35 108.232 1080.13C107.945 1080.68 107.836 1080.82 107.652 1080.95C107.505 1081.04 107.408 1081.15 107.392 1081.24C107.326 1081.54 106.855 1082.43 106.622 1082.69C106.491 1082.84 106.345 1083.03 106.296 1083.12C106.247 1083.21 106.128 1083.39 106.025 1083.52C105.922 1083.66 105.846 1083.83 105.846 1083.91C105.846 1084.01 105.743 1084.18 105.537 1084.44C105.13 1084.94 104.919 1085.25 104.675 1085.72C104.566 1085.93 104.409 1086.19 104.328 1086.29C104.122 1086.55 103.894 1087.01 103.894 1087.17C103.894 1087.25 103.769 1087.46 103.585 1087.69C103.184 1088.18 102.967 1088.5 102.723 1088.96C102.614 1089.17 102.457 1089.44 102.37 1089.56C101.985 1090.09 101.823 1090.34 101.638 1090.69C101.53 1090.9 101.373 1091.17 101.286 1091.29C100.912 1091.81 100.749 1092.09 100.749 1092.21C100.749 1092.3 100.678 1092.4 100.532 1092.51C100.413 1092.61 100.272 1092.76 100.223 1092.86C100.174 1092.95 100.055 1093.14 99.9518 1093.27C99.8109 1093.46 99.7729 1093.55 99.7729 1093.75C99.7729 1094.04 99.5506 1094.41 99.1439 1094.81C98.889 1095.06 98.6884 1095.42 98.6884 1095.62C98.6884 1095.73 98.3956 1096.16 98.2546 1096.25C98.1028 1096.35 97.8208 1096.77 97.8208 1096.9C97.8208 1096.98 97.7449 1097.15 97.6364 1097.28C97.5388 1097.41 97.387 1097.66 97.3056 1097.82C97.2243 1097.98 97.0616 1098.2 96.9478 1098.31C96.8122 1098.44 96.7363 1098.56 96.7363 1098.64C96.7363 1098.72 96.6549 1098.88 96.5519 1099.01C96.1344 1099.57 96.053 1099.88 96.2808 1100.1C96.514 1100.31 96.9586 1100.29 97.3002 1100.02C97.4466 1099.91 97.6256 1099.82 97.6961 1099.82C97.7666 1099.82 97.9021 1099.78 97.9997 1099.73C98.0973 1099.68 98.3576 1099.63 98.5908 1099.6C98.9433 1099.57 99.0354 1099.55 99.2252 1099.39C99.3879 1099.26 99.5289 1099.2 99.7458 1099.18C99.9952 1099.14 100.077 1099.1 100.228 1098.94C100.38 1098.78 100.451 1098.74 100.619 1098.74C100.738 1098.74 100.939 1098.69 101.069 1098.63C101.199 1098.57 101.351 1098.52 101.405 1098.52C101.465 1098.52 101.687 1098.44 101.899 1098.33C102.115 1098.22 102.425 1098.11 102.603 1098.09C102.831 1098.06 102.978 1098 103.135 1097.87C103.292 1097.75 103.439 1097.69 103.677 1097.66C103.91 1097.62 104.062 1097.56 104.209 1097.45C104.512 1097.21 104.735 1097.11 104.979 1097.11C105.217 1097.11 105.841 1096.83 106.171 1096.57C106.437 1096.36 108.205 1095.49 108.357 1095.49C108.427 1095.49 108.595 1095.41 108.726 1095.31C108.861 1095.21 109.224 1095 109.533 1094.84C109.848 1094.68 110.19 1094.49 110.293 1094.41C110.396 1094.33 110.64 1094.18 110.835 1094.08C111.03 1093.99 111.274 1093.84 111.377 1093.76C111.48 1093.68 111.822 1093.48 112.131 1093.33C112.44 1093.17 112.798 1092.97 112.917 1092.89C113.454 1092.5 113.703 1092.34 114.061 1092.16C114.273 1092.05 114.576 1091.84 114.739 1091.7C114.902 1091.56 115.195 1091.37 115.39 1091.27C115.58 1091.17 115.894 1090.96 116.084 1090.8C116.274 1090.64 116.447 1090.51 116.474 1090.51C116.501 1090.51 116.675 1090.38 116.865 1090.22C117.055 1090.06 117.282 1089.89 117.369 1089.84C117.776 1089.61 118.714 1088.91 119.017 1088.61C119.283 1088.34 119.679 1088.06 120.135 1087.83C120.579 1087.59 121.046 1087.23 121.626 1086.65C122.054 1086.23 122.407 1085.95 122.764 1085.75C122.867 1085.69 123.111 1085.5 123.307 1085.31C123.502 1085.13 123.746 1084.94 123.849 1084.88C123.952 1084.83 124.196 1084.63 124.391 1084.45C124.586 1084.26 124.809 1084.08 124.896 1084.04C124.977 1083.99 125.102 1083.86 125.177 1083.74C125.253 1083.63 125.411 1083.47 125.53 1083.39C125.649 1083.32 125.785 1083.18 125.834 1083.08C125.926 1082.9 126.707 1082.12 126.793 1082.12C126.821 1082.12 126.961 1082.01 127.108 1081.86C127.254 1081.72 127.455 1081.53 127.553 1081.44C127.645 1081.35 127.764 1081.2 127.818 1081.11C127.867 1081.01 128.008 1080.88 128.127 1080.8C128.247 1080.72 128.388 1080.58 128.436 1080.49C128.485 1080.39 128.849 1080 129.244 1079.61C129.64 1079.21 130.025 1078.79 130.107 1078.67C130.182 1078.55 130.296 1078.42 130.356 1078.39C130.416 1078.35 130.53 1078.22 130.611 1078.1C130.687 1077.98 130.98 1077.65 131.256 1077.38C131.701 1076.94 131.793 1076.81 132.059 1076.29C132.259 1075.89 132.417 1075.65 132.525 1075.57C132.617 1075.51 132.726 1075.38 132.769 1075.29C132.818 1075.21 132.997 1074.99 133.176 1074.81C133.355 1074.63 133.539 1074.41 133.588 1074.31C133.637 1074.22 133.81 1073.98 133.967 1073.8C134.173 1073.56 134.26 1073.41 134.26 1073.3C134.26 1073.19 134.347 1073.04 134.553 1072.8C134.862 1072.44 135.507 1071.22 135.507 1071.01C135.507 1070.82 135.296 1070.66 134.943 1070.56C134.542 1070.46 134.542 1070.46 134.293 1070.64Z" fill="white"/>
<path d="M17.9628 1072.5C17.7838 1072.69 17.8164 1072.84 18.0929 1073.15C18.2339 1073.31 18.4779 1073.7 18.6623 1074.07C18.9659 1074.67 19.0256 1074.75 19.6329 1075.36C19.9854 1075.71 20.3162 1076.08 20.3704 1076.18C20.4192 1076.28 20.5276 1076.44 20.609 1076.55C20.6903 1076.65 20.7988 1076.82 20.8476 1076.91C20.9018 1077.02 21.1838 1077.34 21.4766 1077.63C21.7694 1077.92 22.0622 1078.26 22.1273 1078.39C22.1924 1078.51 22.4852 1078.85 22.778 1079.14C23.0708 1079.44 23.3636 1079.77 23.4233 1079.89C23.4829 1080 23.6347 1080.2 23.754 1080.34C23.8733 1080.47 24.0143 1080.64 24.0577 1080.73C24.1011 1080.81 24.2258 1080.94 24.3397 1081.01C24.6488 1081.2 25.0338 1081.6 25.1639 1081.85C25.294 1082.11 25.755 1082.57 25.9935 1082.7C26.0749 1082.74 26.205 1082.87 26.2809 1082.99C26.3569 1083.11 26.5033 1083.26 26.6063 1083.32C26.7147 1083.39 26.8557 1083.52 26.9208 1083.63C26.9913 1083.74 27.1485 1083.91 27.2733 1084.02C27.4034 1084.12 27.6095 1084.3 27.7288 1084.43C27.8535 1084.55 28.0216 1084.69 28.1083 1084.74C28.1897 1084.79 28.3144 1084.93 28.3849 1085.04C28.4608 1085.15 28.6018 1085.29 28.7102 1085.36C28.8133 1085.42 28.9597 1085.57 29.041 1085.69C29.1386 1085.85 29.2742 1085.96 29.5453 1086.09C29.7785 1086.21 30.0767 1086.44 30.3695 1086.72C30.6244 1086.97 30.8955 1087.2 30.9769 1087.24C31.0528 1087.28 31.1721 1087.39 31.2371 1087.48C31.3131 1087.59 31.5571 1087.75 31.9312 1087.94C32.4355 1088.19 32.5874 1088.3 33.0808 1088.78C33.4929 1089.18 33.7586 1089.39 34.0569 1089.54C34.5286 1089.79 34.8702 1090.02 35.3312 1090.39C35.5155 1090.54 35.83 1090.75 36.0361 1090.85C36.2476 1090.96 36.5729 1091.19 36.7681 1091.38C37.1369 1091.72 37.652 1092.03 37.8689 1092.03C38.0804 1092.03 38.6226 1092.44 38.9805 1092.88C39.1052 1093.03 39.1757 1093.07 39.4686 1093.11C39.7668 1093.15 39.8481 1093.19 40.1193 1093.42C40.2874 1093.57 40.6832 1093.82 40.9977 1093.98C41.3122 1094.13 41.7081 1094.38 41.8762 1094.53C42.1473 1094.76 42.234 1094.8 42.5106 1094.84C42.798 1094.88 42.8847 1094.92 43.1938 1095.19C43.4433 1095.4 43.6005 1095.49 43.7036 1095.49C43.7957 1095.49 43.953 1095.57 44.094 1095.68C44.4085 1095.91 44.864 1096.14 45.0267 1096.14C45.0971 1096.14 45.2652 1096.22 45.3954 1096.33C45.7099 1096.56 46.1654 1096.79 46.3281 1096.79C46.3986 1096.79 46.5721 1096.88 46.7131 1096.99C46.9083 1097.13 47.0493 1097.19 47.2933 1097.22C47.521 1097.26 47.6728 1097.32 47.8193 1097.43C48.0741 1097.64 48.5513 1097.87 48.6977 1097.87C48.7574 1097.87 48.9038 1097.92 49.0231 1097.98C49.1424 1098.04 49.2833 1098.09 49.3484 1098.09C49.4081 1098.09 49.6358 1098.18 49.8473 1098.29C50.0642 1098.39 50.3733 1098.5 50.5522 1098.52C50.78 1098.56 50.9264 1098.62 51.0782 1098.73C51.3656 1098.97 51.8319 1099.17 52.0597 1099.17C52.1681 1099.17 52.4555 1099.27 52.7104 1099.39C52.9761 1099.51 53.2526 1099.61 53.3665 1099.61C53.475 1099.61 53.7407 1099.7 54.0064 1099.82C54.2504 1099.94 54.4998 1100.04 54.554 1100.04C54.6083 1100.04 54.7547 1100.09 54.8848 1100.15C55.0529 1100.22 55.2427 1100.26 55.5301 1100.26C55.888 1100.26 55.991 1100.28 56.3977 1100.47C56.6526 1100.59 56.9345 1100.69 57.0321 1100.69C57.1298 1100.69 57.3304 1100.74 57.4822 1100.8C57.8347 1100.94 58.1004 1100.94 58.2414 1100.8C58.4149 1100.62 58.3769 1100.46 58.057 1100.08C57.8998 1099.89 57.7262 1099.67 57.6829 1099.58C57.634 1099.49 57.4931 1099.31 57.3738 1099.17C57.249 1099.04 57.0538 1098.75 56.94 1098.52C56.8261 1098.3 56.6309 1098.01 56.5062 1097.87C56.3869 1097.74 56.2405 1097.54 56.1808 1097.44C56.1212 1097.34 55.9748 1097.14 55.8555 1097.01C55.7307 1096.87 55.5355 1096.58 55.4162 1096.36C55.1559 1095.87 54.874 1095.45 54.6625 1095.28C54.4456 1095.09 54.1636 1094.68 53.9033 1094.18C53.7732 1093.93 53.5617 1093.64 53.3611 1093.43C53.1821 1093.26 52.9978 1093.03 52.949 1092.93C52.9002 1092.84 52.7917 1092.67 52.7104 1092.57C52.629 1092.47 52.4718 1092.21 52.3688 1092C52.2603 1091.79 52.0759 1091.51 51.9512 1091.38C51.8319 1091.24 51.6909 1091.06 51.6421 1090.97C51.5933 1090.88 51.474 1090.7 51.371 1090.57C51.2734 1090.44 51.1921 1090.27 51.1921 1090.19C51.1921 1090 51.0674 1089.84 50.8071 1089.67C50.6607 1089.58 50.5468 1089.43 50.4275 1089.2C50.3353 1089.01 50.1889 1088.77 50.1076 1088.67C50.0262 1088.57 49.9232 1088.41 49.8744 1088.32C49.8256 1088.23 49.6846 1088.05 49.5653 1087.91C49.446 1087.78 49.2996 1087.58 49.24 1087.48C49.1803 1087.38 49.0339 1087.18 48.9146 1087.05C48.7953 1086.91 48.6543 1086.73 48.6055 1086.64C48.5567 1086.55 48.4537 1086.39 48.3724 1086.29C48.291 1086.19 48.1338 1085.93 48.0307 1085.72C47.9223 1085.51 47.7379 1085.23 47.6132 1085.1C47.4885 1084.96 47.2933 1084.67 47.1794 1084.45C47.0655 1084.23 46.8703 1083.93 46.7456 1083.8C46.6263 1083.66 46.4853 1083.48 46.4365 1083.39C46.3877 1083.3 46.2847 1083.14 46.2033 1083.04C46.122 1082.94 45.9756 1082.7 45.878 1082.5C45.7804 1082.31 45.634 1082.06 45.5526 1081.96C45.4713 1081.86 45.3737 1081.7 45.3303 1081.63C45.2869 1081.55 45.1459 1081.36 45.0104 1081.2C44.8748 1081.04 44.7176 1080.83 44.6579 1080.72C44.5983 1080.62 44.4464 1080.46 44.3163 1080.37C44.1753 1080.28 44.0777 1080.17 44.056 1080.08C43.9964 1079.77 43.7849 1079.4 43.6114 1079.26C43.5138 1079.19 43.3945 1079.06 43.3511 1078.98C43.3077 1078.89 43.1342 1078.68 42.9607 1078.52C42.6299 1078.2 42.6678 1078.2 42.1527 1078.31C42.0063 1078.34 41.9412 1078.32 41.7514 1078.16C41.54 1078 41.4857 1077.98 41.0031 1077.95C40.7157 1077.93 40.3904 1077.87 40.2819 1077.82C40.1681 1077.77 40.0054 1077.74 39.9186 1077.74C39.8264 1077.74 39.6312 1077.69 39.4794 1077.63C39.3276 1077.57 39.1269 1077.52 39.0293 1077.52C38.9317 1077.52 38.6497 1077.42 38.3949 1077.3C37.9882 1077.11 37.8852 1077.09 37.5273 1077.09C37.1694 1077.09 37.0664 1077.06 36.6597 1076.87C36.4048 1076.75 36.1228 1076.65 36.0252 1076.65C35.9276 1076.65 35.727 1076.61 35.5752 1076.55C35.4233 1076.49 35.1793 1076.44 35.0329 1076.44C34.8865 1076.44 34.6425 1076.39 34.4907 1076.33C34.3388 1076.27 34.0948 1076.22 33.9484 1076.22C33.802 1076.22 33.558 1076.17 33.4062 1076.11C33.2543 1076.05 33.0537 1076 32.9561 1076C32.8585 1076 32.6741 1075.96 32.544 1075.9C32.4138 1075.84 32.262 1075.79 32.2024 1075.79C32.1481 1075.79 32.0234 1075.74 31.9258 1075.7C31.7957 1075.63 31.5679 1075.59 31.0202 1075.57C30.2882 1075.54 30.2828 1075.54 30.055 1075.37C29.8924 1075.23 29.7459 1075.17 29.5182 1075.14C29.3447 1075.11 29.1115 1075.06 29.0031 1075.01C28.8892 1074.96 28.6723 1074.92 28.515 1074.92C28.3469 1074.92 28.13 1074.87 27.989 1074.81C27.8589 1074.75 27.7071 1074.71 27.6528 1074.71C27.5932 1074.71 27.4522 1074.66 27.3329 1074.6C27.2136 1074.54 27.0672 1074.49 27.0076 1074.49C26.9425 1074.49 26.8178 1074.45 26.7256 1074.4C26.6226 1074.35 26.4978 1074.33 26.4057 1074.35C26.3189 1074.36 26.1779 1074.4 26.0912 1074.41C25.961 1074.44 25.9176 1074.42 25.8146 1074.27C25.7007 1074.11 25.679 1074.1 25.435 1074.14C25.1476 1074.18 24.9687 1074.11 24.6108 1073.83C24.3559 1073.63 24.139 1073.59 23.7812 1073.68C23.4938 1073.75 23.4829 1073.74 23.2931 1073.6C23.1196 1073.47 23.0654 1073.46 22.8431 1073.49C22.6262 1073.51 22.534 1073.5 22.2357 1073.36C21.9429 1073.22 21.8182 1073.19 21.4928 1073.19C21.2271 1073.19 21.0102 1073.15 20.8259 1073.08C20.674 1073.02 20.4734 1072.97 20.3758 1072.97C20.2782 1072.97 20.0938 1072.92 19.9637 1072.87C19.8335 1072.81 19.6817 1072.76 19.6275 1072.76C19.5678 1072.76 19.3835 1072.69 19.21 1072.6C18.9931 1072.49 18.7816 1072.44 18.4888 1072.41C18.1092 1072.38 18.0766 1072.38 17.9628 1072.5Z" fill="white"/>
<path d="M363.564 253.974L363.564 214.863L692.453 214.863L692.453 265.085C692.453 292.641 674.231 309.085 639.12 309.085L552.009 309.085C516.898 309.085 498.675 292.641 498.675 265.085L498.675 253.974L363.564 253.974ZM530.675 253.974L530.675 261.085C530.675 267.752 536.898 269.974 548.898 269.974L642.231 269.974C654.231 269.974 660.453 267.752 660.453 261.085L660.453 253.974L530.675 253.974Z" fill="white"/>
<path d="M692.453 105.477L692.453 144.587L409.786 144.587C398.231 144.587 392.009 146.81 392.009 153.032C392.009 159.698 398.231 161.921 409.786 161.921L692.453 161.921L692.453 201.031L416.898 201.031C379.12 201.031 360.009 183.254 360.009 153.032C360.009 122.81 379.12 105.477 416.898 105.477L692.453 105.477Z" fill="white"/>
<path d="M498.667 92.4438L416.889 92.4438C379.111 92.4438 360 77.7772 360 47.5552C360 17.3332 379.111 -1.38505e-05 416.889 -1.21993e-05L639.111 -2.48649e-06C676.889 -8.35304e-07 696 17.3332 696 47.5552C696 77.7773 676.889 92.4438 639.111 92.4438L563.111 92.4438L563.111 55.9996L646.667 55.9996C657.778 55.9996 664.444 53.7774 664.444 47.5552C664.444 40.8886 657.778 39.1109 646.667 39.1109L409.333 39.1108C398.222 39.1108 391.556 40.8886 391.556 47.5552C391.556 53.7774 398.222 55.9996 409.333 55.9996L498.667 55.9996L498.667 92.4438Z" fill="white"/>
<path d="M528 673.484C620.784 673.484 696 598.268 696 505.484C696 412.701 620.784 337.484 528 337.484M528 673.484C435.216 673.484 360 598.268 360 505.484C360 412.701 435.216 337.484 528 337.484M528 673.484V337.484" stroke="white"/>
<circle cx="528" cy="505.484" r="12" fill="white"/>
<path d="M646.667 1054L531.556 1054C546.222 1057.11 554.667 1066.89 554.667 1080.22C554.667 1099.78 539.111 1110 516.444 1110L416.889 1110C379.111 1110 360 1092.67 360 1062.45C360 1032.22 379.111 1014.89 416.889 1014.89L639.111 1014.89C676.889 1014.89 696 1032.22 696 1062.45C696 1092.67 676.889 1107.33 639.111 1107.33L572 1107.33L572 1070.89L646.667 1070.89C657.778 1070.89 664.444 1068.67 664.444 1062.45C664.444 1055.78 657.778 1054 646.667 1054ZM409.778 1054C398.222 1054 392 1055.78 392 1062.45C392 1068.67 398.222 1070.89 409.778 1070.89L507.556 1070.89C518.667 1070.89 525.333 1068.67 525.333 1062.45C525.333 1055.78 518.667 1054 507.556 1054L409.778 1054Z" fill="black"/>
<path d="M580 964.874L646.667 964.874C657.778 964.874 664.444 962.652 664.444 955.986C664.444 949.763 657.778 947.541 646.667 947.541L572 947.541L572 911.097L639.111 911.097C676.889 911.097 696 925.763 696 955.986C696 986.208 676.889 1003.99 639.111 1003.99L584 1003.99C559.111 1003.99 537.333 998.208 515.111 990.652L398.222 951.097L398.222 1005.32L363.556 1005.32L363.556 910.652L392.444 910.652L535.556 957.763C551.556 963.097 565.333 964.874 580 964.874Z" fill="black"/>
<path d="M639.111 901.24L416.889 901.24C379.111 901.24 360 883.907 360 853.684C360 823.462 379.111 806.129 416.889 806.129L639.111 806.129C676.889 806.129 696 823.462 696 853.684C696 883.907 676.889 901.24 639.111 901.24ZM409.333 845.24C398.222 845.24 391.556 847.018 391.556 853.684C391.556 859.907 398.222 862.129 409.333 862.129L646.667 862.129C657.778 862.129 664.444 859.907 664.444 853.684C664.444 847.018 657.778 845.24 646.667 845.24L409.333 845.24Z" fill="white"/>
<path d="M580 756.109L646.667 756.109C657.778 756.109 664.444 753.887 664.444 747.22C664.444 740.998 657.778 738.776 646.667 738.776L572 738.776L572 702.331L639.111 702.331C676.889 702.331 696 716.998 696 747.22C696 777.442 676.889 795.22 639.111 795.22L584 795.22C559.111 795.22 537.333 789.442 515.111 781.887L398.222 742.331L398.222 796.553L363.556 796.553L363.556 701.887L392.444 701.887L535.556 748.998C551.556 754.331 565.333 756.109 580 756.109Z" fill="white"/>
</svg>
